<?xml version="1.0" standalone="no"?>
<!DOCTYPE svg PUBLIC "-//W3C//DTD SVG 20010904//EN"
 "http://www.w3.org/TR/2001/REC-SVG-20010904/DTD/svg10.dtd">
<svg version="1.0" xmlns="http://www.w3.org/2000/svg"
 width="1823.000000pt" height="1000.000000pt" viewBox="0 0 1823.000000 1000.000000"
 preserveAspectRatio="xMidYMid meet">

<g transform="translate(0.000000,1000.000000) scale(0.100000,-0.100000)"
fill="#000000" stroke="none">
<path d="M0 7915 c0 -1147 3 -2085 8 -2085 51 -1 148 -28 211 -60 70 -35 85
-39 167 -41 49 -2 99 0 111 5 15 4 31 1 48 -10 l25 -16 0 32 c0 18 -11 52 -25
76 -28 48 -72 67 -179 79 -32 4 -77 16 -99 28 -45 23 -35 35 15 18 17 -6 34
-8 37 -5 3 4 0 9 -6 11 -7 3 -13 9 -13 14 0 17 35 9 72 -16 20 -14 39 -25 42
-25 15 0 131 -60 209 -108 l88 -54 -7 -36 c-4 -20 -14 -45 -23 -55 -14 -17
-14 -20 -1 -30 8 -7 23 -29 32 -49 25 -53 60 -74 98 -58 39 16 84 7 143 -31
32 -20 47 -35 43 -45 -4 -11 4 -14 33 -14 30 0 40 4 44 20 3 12 14 20 26 20
12 0 21 6 22 13 0 6 6 -4 12 -23 13 -37 11 -190 -3 -190 -9 0 -20 50 -20 95 0
44 -25 65 -45 39 -17 -23 -18 -31 -5 -39 8 -5 8 -11 0 -19 -6 -8 -7 -27 -3
-46 4 -23 3 -31 -5 -26 -7 4 -8 -4 -1 -30 6 -19 8 -48 4 -63 -7 -35 23 -78 49
-68 10 4 16 15 15 24 -4 46 2 113 11 113 6 0 10 -35 10 -85 l0 -85 46 -42 c50
-46 97 -113 92 -130 -3 -8 -148 105 -168 131 -11 14 -63 51 -72 51 -15 0 -89
-166 -89 -202 0 -18 4 -57 10 -87 15 -74 15 -74 -19 -67 -29 5 -30 5 -30 -34
0 -44 44 -136 130 -274 28 -44 50 -86 50 -93 0 -27 -18 -3 -53 69 -19 40 -45
82 -57 93 -12 11 -37 51 -56 90 -81 168 -98 186 -142 157 -20 -13 -22 -13 -22
2 0 9 -14 43 -31 76 -36 69 -59 149 -59 205 0 42 40 170 76 245 12 25 19 48
16 52 -4 3 -36 12 -72 19 -77 15 -88 22 -69 45 12 15 6 24 -55 80 -38 36 -84
69 -104 75 -48 14 -237 23 -204 9 38 -16 25 -22 -40 -18 -54 3 -135 32 -210
75 -5 2 -8 -334 -8 -747 0 -689 1 -752 16 -746 13 5 15 2 9 -16 -13 -44 -17
-78 -11 -103 8 -31 24 -33 28 -3 2 13 7 21 11 18 5 -3 13 2 18 12 5 9 27 19
49 23 22 4 40 9 40 12 0 13 -31 33 -52 33 -24 0 -56 16 -48 23 8 7 170 65 231
83 73 22 74 23 48 50 -28 30 -19 30 56 0 50 -21 70 -24 124 -19 47 5 62 3 57
-5 -4 -7 -14 -12 -22 -12 -8 0 -14 -7 -14 -15 0 -8 1 -15 3 -15 1 0 27 -9 57
-20 102 -37 220 -21 220 31 0 11 7 19 18 19 13 0 14 -2 4 -9 -8 -5 -12 -17
-10 -27 5 -26 75 -21 105 8 13 12 26 18 30 14 14 -14 -55 -66 -88 -66 -34 0
-68 -16 -86 -39 -10 -14 -12 -14 -19 3 -6 15 -14 17 -47 12 -31 -5 -69 3 -184
41 -143 46 -145 47 -206 34 -140 -28 -188 -55 -147 -84 10 -7 24 -24 30 -38 5
-13 15 -32 22 -41 10 -14 8 -21 -10 -41 -13 -14 -20 -31 -17 -39 4 -9 -3 -31
-14 -49 -12 -19 -21 -42 -21 -51 0 -10 -4 -18 -10 -18 -5 0 -10 -5 -10 -11 0
-7 -17 -31 -37 -54 -21 -23 -57 -65 -80 -93 l-43 -51 0 -1810 0 -1811 9115 0
9115 0 0 2380 c0 1767 -3 2380 -11 2380 -33 0 -92 -26 -100 -44 -23 -56 -59
-239 -69 -353 -17 -209 -31 -326 -40 -343 -4 -8 -13 -157 -19 -330 -6 -173
-16 -400 -23 -505 -6 -104 -10 -198 -10 -207 0 -10 -3 -18 -9 -18 -5 0 -9 8
-9 18 0 14 -2 15 -9 2 -6 -8 -7 -18 -5 -22 3 -4 -2 -5 -10 -2 -9 3 -16 1 -16
-5 0 -6 -7 -11 -15 -11 -9 0 -18 -6 -21 -14 -3 -8 -16 -17 -30 -20 -13 -4 -33
-15 -44 -26 -15 -15 -35 -20 -75 -21 -31 -1 -58 1 -62 4 -3 4 -8 28 -10 54 -2
27 -11 58 -19 71 -14 21 -14 26 1 49 12 18 15 37 11 64 -5 31 -2 40 15 52 54
38 70 116 49 241 -9 56 -7 65 24 145 50 126 56 149 57 222 1 55 -3 76 -28 125
-42 83 -68 99 -157 99 -72 0 -73 1 -130 47 -112 92 -119 125 -33 152 9 3 17
15 17 26 0 11 -8 23 -17 26 -100 33 -113 49 -113 143 0 67 -4 86 -31 141 -20
38 -43 69 -60 79 -38 21 -40 30 -28 98 6 32 9 74 6 95 -3 20 0 41 6 47 24 24
55 10 121 -54 37 -36 74 -65 83 -65 8 0 35 -15 60 -32 39 -28 53 -33 97 -31
28 2 68 9 89 16 25 9 55 11 90 6 82 -11 128 0 140 34 11 34 11 34 -49 56 l-49
17 3 68 c6 105 -44 243 -106 293 -7 6 -14 22 -14 35 0 13 1 61 2 106 1 67 -2
88 -16 103 -16 18 -16 19 2 19 11 0 15 3 8 8 -19 13 -74 138 -74 168 0 16 8
40 17 53 20 30 27 130 12 191 -6 25 -22 80 -35 123 -16 51 -24 101 -23 145 0
47 3 61 9 47 7 -17 9 -17 9 -2 1 9 8 17 16 17 9 0 15 9 15 21 0 17 2 18 13 7
8 -7 26 -22 41 -33 15 -11 34 -32 42 -47 8 -16 19 -28 25 -28 11 0 -2 29 -23
52 -52 55 -98 155 -98 214 0 41 9 42 49 8 56 -47 111 -165 111 -238 0 -30 33
-122 75 -211 13 -27 26 -68 31 -89 13 -71 93 -125 184 -126 25 0 43 -9 64 -30
26 -27 31 -29 46 -15 9 8 24 15 33 15 28 0 23 76 -5 91 -26 14 -57 47 -60 63
-3 22 -5 31 -13 49 -4 9 -5 23 -2 30 2 6 5 17 7 22 6 27 23 45 55 56 l35 13 0
2008 0 2008 -2801 0 c-2796 0 -2800 0 -2794 -20 8 -25 4 -25 -37 0 -18 11 -50
20 -71 20 -33 0 -38 -3 -32 -19 5 -17 2 -19 -37 -14 -24 3 -61 10 -83 16 -49
13 -394 22 -380 9 53 -45 209 -165 244 -187 44 -27 240 -106 313 -126 42 -11
48 -23 19 -39 -86 -46 -295 45 -557 241 l-158 119 -3704 0 c-3524 0 -3704 -1
-3697 -17 19 -48 25 -81 19 -115 -8 -51 12 -108 37 -108 35 0 55 -17 69 -60 7
-22 19 -45 27 -51 17 -15 17 -35 -2 -67 -15 -25 -13 -34 24 -142 78 -230 97
-268 125 -257 9 4 39 43 68 88 51 79 53 81 56 50 2 -22 -6 -47 -26 -79 -48
-78 -58 -114 -43 -159 7 -22 26 -48 44 -61 l32 -23 18 22 c10 12 22 29 26 37
5 9 14 12 21 7 17 -10 6 -58 -22 -95 -21 -29 -21 -31 -5 -65 9 -20 17 -56 17
-80 0 -61 17 -95 47 -95 23 0 24 -2 18 -41 -7 -38 -4 -44 32 -83 l40 -41 58
-275 c32 -151 64 -300 71 -330 18 -72 18 -86 -6 -110 -11 -11 -20 -31 -20 -44
0 -24 47 -164 60 -179 3 -4 14 30 25 75 25 112 100 268 129 268 39 0 81 -150
116 -411 4 -30 12 -65 19 -77 6 -11 11 -41 11 -66 0 -25 5 -48 11 -52 6 -3 8
-15 5 -26 -2 -12 0 -45 6 -75 9 -45 8 -64 -7 -113 -31 -103 -5 -274 48 -319 8
-6 17 -40 20 -79 6 -79 38 -170 74 -212 18 -22 23 -37 19 -56 -6 -24 26 -76
103 -163 50 -57 109 -227 67 -192 -8 7 -31 46 -51 87 -26 51 -42 74 -51 70 -8
-3 -14 1 -14 9 0 8 -6 14 -12 13 -7 -2 -12 2 -11 8 1 6 -11 26 -27 45 l-29 34
-1 -26 c0 -27 30 -77 84 -141 18 -20 54 -80 81 -132 27 -53 55 -96 62 -96 7 0
13 -4 13 -10 0 -13 32 -50 43 -50 12 0 46 -40 58 -69 5 -14 10 -45 10 -70 0
-75 9 -121 25 -121 9 0 14 11 14 31 0 16 7 62 16 101 14 61 18 69 28 52 9 -16
17 -179 16 -353 0 -39 4 -48 41 -82 45 -41 88 -55 138 -44 16 3 39 1 51 -5 16
-9 21 -8 26 4 8 21 -60 162 -85 175 -24 13 -29 41 -7 41 25 0 95 -121 114
-201 11 -41 25 -85 32 -98 6 -13 14 -77 17 -142 5 -103 8 -119 24 -124 23 -8
37 -88 20 -109 -17 -21 -91 -32 -102 -15 -4 7 -5 18 -1 23 3 6 9 33 13 61 7
54 -3 113 -32 187 -23 58 -23 55 2 61 20 5 21 10 15 54 -7 56 -23 76 -37 50
-7 -12 -17 -15 -37 -11 -15 4 -31 11 -36 15 -6 5 -19 9 -30 9 -12 0 -40 9 -64
20 -23 10 -49 17 -56 14 -23 -9 -28 -35 -11 -60 18 -27 20 -106 4 -136 -16
-29 -29 -149 -19 -168 6 -11 -5 -29 -40 -67 -52 -57 -59 -60 -91 -40 -17 10
-22 9 -35 -7 -8 -11 -13 -32 -12 -47 2 -29 -39 -91 -74 -110 -11 -6 -33 -8
-49 -5 -25 5 -31 1 -51 -34 -13 -22 -29 -40 -36 -40 -19 0 -32 45 -32 112 0
54 -3 63 -27 85 -24 20 -35 23 -70 18 -35 -5 -45 -3 -60 16 -38 45 -44 49 -61
40 -27 -14 -52 5 -52 39 0 19 5 30 14 30 10 0 15 22 19 83 4 74 46 234 67 262
5 6 16 30 26 55 9 25 34 68 54 96 21 27 53 79 71 115 29 58 33 74 37 174 6
148 -13 238 -80 380 -54 115 -71 137 -94 128 -20 -7 -17 17 4 33 27 20 2 36
-56 37 l-50 1 -7 58 c-8 69 -30 76 -51 18 -24 -66 -8 -348 22 -395 7 -11 17
-38 23 -61 28 -104 62 -625 43 -653 -18 -26 -32 0 -32 62 0 124 -21 291 -39
308 -13 12 -25 67 -45 195 -42 271 -45 286 -77 312 -40 32 -74 143 -90 287
-25 236 -40 324 -65 392 -14 36 -42 94 -63 128 -21 35 -73 157 -115 272 -105
282 -159 421 -314 818 -28 72 -56 151 -61 177 -12 53 -44 140 -66 180 -9 15
-24 60 -34 100 -11 40 -38 118 -61 173 -43 105 -91 243 -133 385 -27 91 -78
235 -102 287 -8 17 -15 37 -15 45 0 7 -6 23 -14 34 -8 11 -19 65 -26 119 -13
124 -43 209 -83 238 -32 24 -67 85 -67 117 0 20 -1 20 -871 20 -694 0 -869 -3
-862 -12 8 -14 5 -50 -6 -58 -16 -11 -55 -126 -55 -164 -1 -33 3 -43 22 -51
15 -7 22 -18 22 -37 0 -64 -74 -75 -129 -19 -17 17 -31 38 -31 45 0 7 -9 23
-20 35 -37 44 -53 105 -48 186 l5 75 -355 0 c-326 0 -354 -1 -348 -17 4 -9 12
-48 18 -87 7 -39 15 -73 19 -76 10 -8 17 -60 8 -60 -5 0 -9 5 -9 12 0 6 -3 9
-6 5 -3 -3 8 -30 25 -60 17 -30 31 -64 31 -75 0 -12 5 -24 10 -27 6 -3 10 -14
10 -24 0 -10 9 -26 20 -36 13 -12 20 -31 20 -53 0 -32 21 -114 56 -220 22 -66
62 -163 123 -294 17 -37 31 -74 31 -83 0 -26 169 -353 190 -368 19 -13 63 -95
104 -192 30 -71 127 -247 133 -241 3 3 0 27 -6 53 -12 56 -43 411 -37 422 3 4
1 77 -5 162 -6 85 -11 174 -11 199 0 25 -5 50 -10 57 -11 14 24 138 47 169 8
11 15 42 15 72 0 57 19 78 45 51 33 -34 75 -230 99 -471 19 -175 39 -323 55
-388 6 -25 14 -55 16 -68 5 -20 10 -22 35 -17 28 6 30 4 32 -22 3 -50 0 -97
-7 -125 -9 -33 1 -35 34 -7 21 17 23 23 13 40 -30 48 1 99 60 99 16 0 28 5 28
11 0 7 10 9 26 5 17 -5 23 -3 19 4 -4 6 4 10 19 10 14 0 27 4 31 10 3 5 12 7
20 3 16 -5 19 5 9 31 -9 23 -34 20 -86 -13 -44 -28 -88 -47 -88 -38 0 3 31 23
69 46 82 48 120 52 163 16 16 -14 36 -25 44 -25 8 0 14 -7 14 -15 0 -9 -9 -15
-24 -15 -14 0 -37 -10 -53 -23 -15 -13 -57 -42 -93 -65 -91 -58 -134 -106
-160 -179 -20 -57 -21 -68 -11 -155 15 -135 48 -350 56 -370 5 -12 39 -28 96
-45 51 -16 89 -33 89 -41 0 -22 -25 -23 -74 -2 -58 24 -66 25 -66 3 0 -26 285
-433 392 -560 19 -23 80 -108 134 -190 54 -81 122 -171 149 -199 28 -29 68
-71 90 -95 22 -24 49 -52 60 -61 11 -9 25 -23 31 -30 6 -7 20 -20 30 -29 29
-24 80 -83 82 -94 0 -5 10 -11 20 -13 10 -2 33 -18 51 -37 20 -22 42 -35 57
-35 22 0 23 -2 14 -21 -7 -11 -9 -23 -6 -26 3 -3 -2 -12 -12 -19 -16 -12 -16
-14 4 -36 11 -13 38 -50 59 -82 21 -33 56 -78 77 -100 21 -23 38 -48 38 -58 0
-11 10 -18 27 -20 18 -2 29 -10 33 -24 3 -12 21 -34 40 -50 19 -15 60 -51 90
-79 30 -28 82 -66 115 -83 61 -32 115 -75 115 -91 0 -5 24 -33 53 -62 64 -65
108 -127 140 -200 13 -30 40 -81 61 -114 41 -68 48 -99 16 -70 -11 10 -20 23
-20 28 0 25 -113 158 -150 177 -22 11 -68 49 -103 85 -34 35 -87 79 -117 97
-31 18 -71 48 -90 66 -35 32 -171 145 -231 191 -17 13 -36 37 -41 53 -6 15
-13 28 -17 28 -5 0 -18 9 -31 20 -31 27 -43 25 -36 -5 6 -24 4 -25 -34 -25
-30 0 -40 -4 -40 -16 0 -8 -7 -23 -16 -32 -12 -11 -15 -27 -11 -59 3 -29 0
-46 -9 -54 -8 -6 -14 -18 -14 -26 0 -8 -10 -37 -21 -64 -20 -46 -21 -52 -7
-88 8 -21 43 -78 77 -127 132 -192 145 -214 122 -214 -16 0 -171 182 -171 202
0 23 -40 80 -53 75 -17 -6 -9 -36 17 -72 13 -16 30 -44 39 -60 21 -41 143
-173 176 -189 14 -8 41 -17 60 -21 28 -6 37 -4 50 14 l17 22 47 -21 c26 -12
56 -19 66 -15 10 3 35 -2 56 -11 28 -11 61 -15 119 -12 52 2 80 -1 83 -8 2 -6
-5 -14 -17 -17 -37 -10 -21 -25 20 -20 22 3 40 3 40 0 0 -4 -18 -11 -40 -17
-22 -6 -40 -16 -40 -22 0 -9 3 -9 12 0 17 17 69 16 62 -2 -3 -8 16 -3 52 15
66 33 127 37 216 14 60 -15 84 -28 175 -91 32 -22 72 -46 88 -52 33 -13 125
-98 162 -149 38 -52 45 -79 24 -104 l-18 -22 -35 26 c-19 15 -37 27 -40 27
-11 0 -15 -106 -5 -128 9 -19 6 -27 -16 -49 -20 -21 -35 -27 -64 -25 -85 4
-101 3 -168 -3 -102 -10 -168 6 -266 63 -131 77 -156 91 -221 117 -65 26 -90
24 -63 -5 13 -14 13 -20 4 -26 -7 -4 -15 -2 -17 4 -5 15 -32 16 -32 2 0 -5 7
-10 15 -10 8 0 15 -7 15 -15 0 -10 -10 -15 -27 -15 -43 0 -56 13 -49 46 6 28
4 30 -46 47 -29 10 -67 21 -85 24 -31 5 -50 30 -45 58 1 6 -12 19 -29 29 -17
10 -47 36 -66 57 -39 43 -53 48 -53 20 0 -18 48 -68 87 -89 10 -6 16 -13 13
-15 -3 -3 -23 7 -45 22 -37 25 -48 38 -100 123 -13 21 -35 38 -63 48 -23 9
-52 26 -64 38 -28 28 -6 30 29 2 39 -30 54 -26 51 15 -1 19 1 37 5 41 4 4 7 2
7 -4 0 -7 9 -21 20 -32 l20 -20 0 30 c0 19 7 34 20 42 11 7 20 18 20 24 0 6 7
17 15 24 13 11 7 20 -40 66 -30 30 -57 54 -61 54 -3 0 -3 -21 1 -48 4 -33 2
-56 -8 -75 l-15 -28 -21 44 c-11 24 -21 53 -21 66 0 12 -5 32 -11 43 -11 21
-12 21 -25 3 -20 -28 -25 -17 -33 77 -1 3 -24 23 -53 43 -48 35 -50 39 -33 51
13 10 23 10 37 3 39 -21 48 -5 48 81 0 48 -6 95 -14 115 -13 31 -19 35 -51 35
-20 0 -45 5 -56 11 -12 6 -50 56 -86 112 -266 412 -496 747 -539 787 -58 54
-252 214 -263 218 -14 5 -23 -57 -28 -188 -4 -120 6 -206 30 -254 5 -10 15
-64 22 -120 20 -152 33 -216 54 -271 10 -27 29 -83 41 -123 21 -69 41 -102 60
-102 18 0 70 -53 70 -71 0 -15 -7 -19 -31 -19 -26 0 -30 -3 -27 -23 1 -13 -5
-32 -15 -41 -11 -12 -14 -22 -9 -30 5 -6 9 -18 9 -26 -1 -25 33 -69 48 -64 20
8 29 -16 11 -29 -15 -11 -14 -17 5 -67 11 -30 25 -60 31 -67 5 -7 7 -16 4 -21
-3 -5 1 -18 9 -28 8 -10 15 -28 15 -40 0 -29 76 -176 100 -194 11 -8 22 -24
24 -35 2 -11 8 -29 12 -39 5 -14 4 -17 -6 -11 -8 5 -11 3 -8 -6 3 -8 13 -13
23 -11 9 2 29 -10 44 -27 16 -18 38 -31 52 -32 13 0 18 -3 12 -6 -15 -6 -17
-29 -3 -46 97 -120 135 -165 199 -230 114 -118 303 -283 342 -300 19 -8 41
-20 49 -28 50 -48 204 -132 280 -154 14 -3 43 -15 65 -25 93 -41 319 -80 341
-58 12 12 2 17 -73 37 -39 10 -90 30 -114 44 -24 14 -65 37 -91 52 -36 19 -48
31 -48 49 0 13 -7 29 -15 36 -14 12 -10 18 30 55 25 23 45 49 45 59 0 23 -107
90 -186 116 -68 23 -124 62 -124 86 0 10 22 3 78 -25 141 -72 232 -110 238
-100 3 5 3 28 -1 49 -6 33 -4 40 9 40 32 0 56 -59 56 -139 l0 -74 -42 -39
c-23 -21 -39 -39 -37 -41 2 -1 33 -17 69 -36 36 -19 72 -40 80 -47 8 -7 50
-28 94 -48 64 -29 77 -39 73 -55 -5 -20 19 -26 143 -37 264 -22 388 -52 468
-113 81 -62 85 -65 124 -102 49 -47 54 -96 6 -52 -18 16 -18 16 -12 0 10 -27
-13 -20 -69 22 -52 39 -176 95 -252 113 -64 16 -157 21 -164 10 -4 -7 -45 -1
-116 18 -76 19 -159 32 -265 40 -85 6 -164 15 -175 20 -11 5 -42 13 -70 19
-27 6 -105 32 -172 57 -114 43 -130 52 -230 137 -60 50 -146 127 -192 171
-170 165 -452 491 -467 541 -4 11 -17 31 -29 45 -13 14 -28 43 -34 65 -11 43
-79 181 -112 226 -10 15 -19 33 -19 41 0 7 -7 22 -15 32 -8 11 -22 44 -31 75
-8 31 -21 65 -28 76 -7 11 -16 37 -20 57 -6 32 -4 37 9 32 10 -4 15 0 15 11 0
10 -5 15 -14 12 -15 -6 -31 20 -41 67 -3 17 -15 42 -26 57 -10 15 -19 36 -19
47 0 18 -14 53 -85 222 -24 55 -38 70 -50 51 -3 -6 -13 -11 -21 -11 -8 0 -12
5 -9 10 4 6 1 18 -6 26 -11 13 -9 19 11 34 22 17 23 21 12 61 -34 131 -42 173
-52 264 -12 118 -13 295 -2 295 4 0 23 -32 41 -72 22 -48 35 -67 41 -59 22 37
-29 304 -70 361 -11 15 -34 34 -50 42 -17 7 -30 16 -30 20 0 10 -36 43 -105
95 -33 25 -104 87 -158 139 -53 52 -101 94 -106 94 -11 0 -31 46 -31 70 0 48
125 9 203 -64 21 -19 60 -49 85 -65 26 -17 52 -35 59 -41 7 -5 16 -10 21 -10
5 0 17 -9 28 -21 20 -22 85 -59 104 -59 8 0 10 28 6 93 -3 50 -5 105 -6 122 0
17 -13 45 -31 67 -16 21 -28 42 -25 46 3 5 -6 21 -19 38 -21 25 -24 27 -25 9
-1 -20 -1 -20 -15 -1 -8 11 -25 20 -37 21 -17 1 -24 9 -28 33 -3 17 -16 43
-30 59 -40 45 -74 94 -107 154 -27 49 -29 56 -15 65 14 9 11 15 -17 45 -18 18
-39 49 -47 67 -8 21 -24 37 -43 43 -27 9 -71 65 -71 89 0 5 25 8 55 6 60 -3
60 -3 45 25 -12 22 -40 26 -40 4 0 -22 -79 15 -104 49 -18 23 -19 28 -6 37 8
5 34 7 58 4 23 -4 42 -4 42 -1 0 4 -9 25 -19 49 -47 101 -160 388 -210 532
-21 61 -52 144 -68 185 -17 41 -42 113 -57 160 -15 47 -31 94 -36 105 -4 11
-13 47 -20 80 -6 33 -16 68 -21 77 -5 10 -9 28 -9 41 0 13 -3 27 -7 31 -4 4
-8 13 -8 19 0 7 -11 43 -23 81 -12 37 -22 79 -22 92 0 14 -7 27 -15 30 -10 4
-13 16 -10 42 3 27 2 33 -6 22 -8 -12 -9 -8 -8 15 3 44 -12 164 -21 170 -5 3
-11 44 -15 93 -4 48 -14 106 -23 129 l-17 43 -592 0 -593 0 0 -2085z m3356
2061 c18 -14 18 -16 3 -31 -16 -16 -18 -16 -38 4 -12 12 -26 21 -32 21 -5 0
-7 5 -4 10 9 15 48 12 71 -4z m10224 -12 c14 -7 51 -34 84 -61 32 -26 66 -53
75 -58 9 -6 42 -27 73 -47 32 -21 70 -41 85 -44 16 -4 46 -16 68 -28 l40 -20
-50 -7 c-27 -3 -63 -2 -80 2 -16 4 -55 11 -85 14 -95 12 -164 63 -206 152 -14
29 -42 70 -62 90 l-37 35 35 -7 c19 -4 46 -13 60 -21z m-10058 -26 c56 -61 46
-77 -12 -17 -27 28 -50 53 -50 55 0 15 29 -3 62 -38z m6119 14 c115 -67 111
-63 105 -109 -3 -23 -11 -56 -18 -72 l-13 -31 -33 20 c-32 19 -33 23 -27 60 6
33 4 40 -10 40 -9 0 -29 7 -46 15 -25 14 -36 14 -67 3 -20 -6 -41 -16 -46 -20
-23 -19 -37 -8 -34 25 3 28 8 33 43 42 44 10 56 21 48 42 -9 22 48 14 98 -15z
m-4285 -50 c-25 -33 -52 -62 -60 -65 -14 -6 -97 -121 -127 -177 -9 -16 -31
-54 -49 -84 -32 -52 -34 -54 -69 -49 -49 7 -61 21 -37 39 11 8 28 14 39 14 19
0 47 22 47 38 0 5 9 17 20 27 11 10 20 26 20 36 0 9 18 40 40 68 22 28 40 55
40 60 0 5 15 20 33 34 17 15 57 49 86 76 30 28 57 49 59 47 2 -2 -17 -31 -42
-64z m3921 32 c4 -12 -92 -48 -105 -40 -15 9 -174 -15 -197 -30 -14 -9 -32
-13 -45 -9 -13 4 -31 0 -48 -12 -15 -10 -52 -27 -82 -38 -30 -12 -55 -26 -55
-32 0 -7 -6 -18 -14 -25 -11 -10 -14 -10 -18 0 -7 18 -38 14 -58 -8 -10 -11
-24 -20 -30 -20 -25 0 -295 -282 -335 -349 l-38 -66 101 -7 c120 -7 237 -36
304 -74 26 -15 82 -44 123 -65 41 -21 67 -38 58 -38 -10 -1 -18 -5 -18 -11 0
-15 -58 -1 -130 32 -105 48 -122 55 -175 72 -66 21 -197 46 -241 46 -26 0 -34
4 -34 18 0 12 -10 6 -35 -23 -33 -37 -135 -184 -160 -230 -56 -101 -81 -144
-97 -167 -11 -16 -17 -36 -14 -45 8 -27 -35 -69 -98 -97 -69 -31 -78 -51 -75
-166 2 -54 -2 -93 -10 -108 -17 -33 -3 -42 19 -14 l19 23 33 -23 c18 -13 35
-24 37 -25 2 -1 -13 -21 -33 -43 -20 -22 -36 -44 -36 -50 0 -5 -46 -50 -102
-99 -160 -141 -300 -206 -465 -216 -57 -3 -94 -2 -98 5 -3 5 -16 10 -28 10
-26 0 -104 24 -165 51 -23 11 -51 19 -60 19 -23 0 -102 60 -102 77 0 7 -7 13
-15 13 -8 0 -15 4 -15 9 0 5 7 14 15 21 21 17 19 27 -14 69 -75 95 -148 272
-171 414 -13 84 -46 154 -75 161 -12 3 -33 16 -46 29 -29 30 -81 57 -107 57
-48 0 -186 -217 -233 -368 -11 -37 -29 -92 -40 -122 -24 -71 -89 -333 -89
-359 0 -11 -4 -23 -10 -26 -5 -3 -10 2 -10 11 0 10 -2 15 -4 13 -18 -18 57
-387 87 -427 5 -7 11 -22 13 -35 1 -12 7 -40 13 -62 35 -133 38 -140 92 -192
29 -29 59 -53 65 -53 7 0 26 -11 42 -25 17 -14 34 -25 38 -25 5 -1 25 -14 44
-30 l34 -30 -35 0 c-20 0 -49 10 -72 25 -45 31 -50 15 -14 -43 13 -20 26 -44
30 -52 4 -8 13 -24 19 -35 41 -64 55 -94 60 -131 4 -25 22 -64 47 -101 22 -33
41 -66 41 -73 0 -7 10 -25 23 -40 48 -61 55 -73 51 -85 -3 -7 -17 -16 -31 -20
-20 -5 -33 2 -68 37 -54 54 -120 108 -131 108 -10 0 -64 65 -64 76 0 4 -10 16
-23 28 -21 19 -44 51 -99 135 -93 143 -157 293 -164 385 -2 33 -10 67 -18 75
-18 22 -26 65 -36 216 -5 72 -14 153 -21 180 -6 28 -14 77 -18 110 -8 68 -5
72 -56 -65 -59 -159 -120 -449 -111 -531 6 -50 4 -57 -19 -79 -21 -20 -28 -22
-35 -10 -16 26 5 318 30 405 55 197 116 333 166 373 24 19 34 35 34 54 0 61
64 338 106 462 25 72 55 163 68 201 12 39 30 84 39 102 23 43 22 49 -13 62
-35 12 -40 24 -7 19 14 -2 26 4 32 17 8 14 24 22 58 25 47 6 58 14 93 71 22
34 101 69 158 69 42 0 46 -2 46 -25 0 -25 14 -33 25 -15 14 23 36 5 91 -77 32
-49 61 -90 64 -93 3 -3 17 -41 32 -85 15 -44 34 -98 42 -120 8 -22 21 -71 29
-110 39 -179 78 -261 152 -323 19 -15 38 -40 44 -55 14 -36 14 -37 -4 -31 -9
4 -15 0 -15 -10 0 -16 98 -67 134 -69 12 0 26 -4 32 -8 9 -7 133 -22 159 -19
6 0 37 3 70 6 33 3 69 9 80 14 11 4 38 11 60 14 24 3 48 14 60 28 11 13 32 29
45 36 14 7 41 27 60 43 37 32 37 32 -32 13 -34 -10 -18 22 21 44 31 18 43 33
61 82 12 33 27 63 31 66 5 3 9 16 9 29 0 13 5 27 10 30 6 3 10 17 10 30 0 13
5 27 11 31 6 3 8 17 5 29 -3 13 -2 27 4 30 5 3 10 14 10 23 0 9 9 28 20 42 12
16 20 41 20 67 0 23 5 45 10 48 13 8 75 131 83 165 4 14 27 56 52 94 25 38 45
72 45 75 0 4 13 22 30 41 16 19 29 40 30 47 0 7 37 49 81 95 45 45 93 98 107
118 34 46 93 101 186 175 42 33 98 77 124 98 53 42 88 55 105 38 17 -17 27
-13 27 12 0 32 19 49 41 36 14 -7 30 -2 69 22 27 17 50 37 50 45 0 11 15 14
63 14 36 0 68 5 75 12 17 17 91 26 206 24 64 -1 101 -5 103 -12z m53 -13 c0
-6 -4 -13 -10 -16 -5 -3 -10 1 -10 9 0 9 5 16 10 16 6 0 10 -4 10 -9z m-5920
-27 c0 -8 7 -14 15 -14 8 0 15 9 15 20 0 28 16 25 53 -10 18 -16 27 -30 20
-30 -6 0 -15 5 -18 10 -8 13 -25 13 -25 0 0 -6 11 -27 23 -48 27 -43 57 -125
57 -158 0 -12 -6 -27 -14 -33 -21 -18 -61 28 -102 119 -19 41 -44 85 -56 97
-20 21 -20 23 -4 48 17 26 36 26 36 -1z m2214 -60 c9 -4 16 -17 15 -33 0 -26
0 -26 -11 -3 -6 12 -17 22 -25 22 -8 0 -11 5 -8 10 7 12 8 12 29 4z m-1989
-43 c8 -17 14 -53 14 -83 -2 -73 9 -116 32 -128 19 -11 27 -60 9 -60 -5 0 -7
-52 -3 -135 5 -113 4 -138 -9 -153 -18 -20 -33 -208 -18 -217 5 -3 3 -20 -6
-40 -8 -19 -14 -48 -14 -64 0 -16 -4 -33 -10 -36 -5 -3 -10 -14 -10 -23 0 -10
-9 -25 -20 -35 -11 -9 -20 -28 -20 -41 0 -30 -9 -56 -20 -56 -5 0 -2 24 7 53
8 28 18 79 23 112 5 33 14 84 20 112 9 44 8 56 -6 77 -19 30 -13 84 17 154 15
33 19 68 19 145 0 91 -3 107 -26 147 l-25 44 21 16 c23 17 21 57 -7 118 -15
34 -9 122 8 122 5 0 15 -13 24 -29z m7145 25 c0 -2 -9 -6 -20 -9 -11 -3 -18
-1 -14 4 5 9 34 13 34 5z m-410 -13 c0 -15 -15 -28 -42 -40 -20 -9 -25 -17
-21 -34 4 -16 2 -20 -8 -17 -8 3 -23 -2 -33 -11 -33 -28 -13 6 34 58 41 45 70
63 70 44z m345 -13 c-27 -12 -43 -12 -25 0 8 5 22 9 30 9 10 0 8 -3 -5 -9z
m-5875 -11 c0 -17 -40 -79 -51 -79 -16 0 -10 31 12 61 21 30 39 38 39 18z
m8552 -26 c80 -39 95 -53 56 -53 -25 0 -37 7 -114 57 -66 44 -36 42 58 -4z
m-3649 -28 c-3 -9 -8 -14 -10 -11 -3 3 -2 9 2 15 9 16 15 13 8 -4z m1662 -5
c-10 -11 -22 -20 -28 -20 -5 0 1 9 14 20 31 25 37 25 14 0z m-1480 1 c19 -8
18 -10 -15 -41 l-35 -33 -3 27 c-6 52 8 64 53 47z m1400 -61 c-3 -5 -12 -10
-18 -10 -7 0 -6 4 3 10 19 12 23 12 15 0z m-1422 -25 c-3 -9 -8 -14 -10 -11
-3 3 -2 9 2 15 9 16 15 13 8 -4z m1182 -11 c11 -15 19 -29 18 -32 -4 -15 -94
-41 -140 -41 -42 -1 -55 -5 -70 -25 -18 -22 -91 -64 -151 -87 -30 -11 -29 -10
41 45 66 52 249 166 267 166 8 0 24 -12 35 -26z m3337 -78 c162 -61 315 -156
378 -237 52 -65 116 -198 134 -281 5 -23 15 -30 64 -43 31 -9 82 -25 112 -36
30 -12 82 -29 115 -39 77 -23 172 -58 206 -76 51 -26 121 -95 145 -141 28 -56
22 -73 -15 -41 -91 82 -230 170 -341 217 -56 23 -236 50 -341 51 -57 0 -134
22 -205 58 -63 32 -70 45 -63 135 l2 27 41 -35 c61 -53 64 -55 68 -46 2 5 30
-2 62 -15 33 -13 64 -20 68 -16 21 21 -111 132 -155 132 -17 0 -57 37 -57 52
0 12 67 -1 102 -18 85 -43 -12 65 -119 132 -32 20 -74 51 -93 69 -155 146
-184 174 -178 175 4 0 36 -11 70 -24z m-1732 -31 c0 -17 -243 -125 -281 -125
-31 0 -42 20 -11 20 9 1 33 7 52 14 30 12 231 92 238 95 1 0 2 -1 2 -4z
m-1713 -21 c-3 -3 -12 -4 -19 -1 -8 3 -5 6 6 6 11 1 17 -2 13 -5z m-5550 -50
c-3 -3 -12 -4 -19 -1 -8 3 -5 6 6 6 11 1 17 -2 13 -5z m4101 -59 c-3 -3 -9 2
-12 12 -6 14 -5 15 5 6 7 -7 10 -15 7 -18z m2759 9 c-3 -3 -12 -4 -19 -1 -8 3
-5 6 6 6 11 1 17 -2 13 -5z m-2795 -54 c-9 -14 -21 -36 -28 -49 -11 -21 -14
-22 -20 -8 -3 9 -10 14 -16 11 -5 -3 -2 -14 8 -25 9 -10 13 -19 8 -19 -6 0
-18 -35 -29 -77 -21 -89 -23 -92 -34 -74 -7 10 -13 11 -27 2 -18 -10 -18 -10
3 -11 12 0 25 -5 29 -11 3 -6 14 -9 23 -6 10 2 18 -1 18 -8 0 -9 -13 -9 -56 2
-83 22 -119 25 -316 27 -128 1 -191 -2 -219 -11 -21 -8 -41 -12 -43 -9 -2 2
13 10 34 16 21 7 41 17 45 23 4 6 89 12 215 15 l210 5 13 31 c7 17 14 40 16
51 6 32 36 108 51 130 17 25 17 22 -7 -53 -24 -77 -28 -145 -7 -122 8 8 24 43
36 77 25 67 71 139 71 110 0 -9 5 -17 11 -17 7 0 9 10 5 26 -6 22 -5 24 8 12
13 -11 12 -16 -2 -38z m2845 34 c-3 -3 -12 -4 -19 -1 -8 3 -5 6 6 6 11 1 17
-2 13 -5z m1405 -111 c20 -8 39 -22 42 -31 16 -60 16 -72 1 -72 -8 0 -15 3
-15 8 0 4 -36 32 -80 61 -44 30 -80 56 -80 59 0 8 94 -10 132 -25z m-9668
-125 c3 -79 8 -161 11 -183 l5 -40 -20 43 c-10 23 -22 66 -26 95 -3 28 -10 69
-16 90 -7 29 -5 50 7 88 9 27 20 49 25 49 4 0 10 -64 14 -142z m9486 10 c119
-62 169 -96 120 -84 -41 11 -290 137 -290 147 0 16 51 -3 170 -63z m1006 -5
c-10 -10 -19 5 -10 18 6 11 8 11 12 0 2 -7 1 -15 -2 -18z m-10586 -57 c0 -56
4 -68 33 -107 42 -56 51 -79 31 -79 -8 0 -20 14 -26 31 -7 19 -16 29 -27 27
-13 -3 -17 -21 -22 -88 -4 -47 -5 -87 -2 -90 3 -3 13 5 23 18 10 12 20 22 23
22 12 0 3 -70 -15 -109 -28 -63 -38 -74 -53 -61 -22 18 -90 -138 -106 -240
-27 -178 -2 -388 52 -439 19 -18 60 -130 52 -143 -9 -16 -32 -7 -38 13 -12 37
-28 5 -20 -40 8 -47 20 -59 33 -35 14 25 29 -32 37 -141 7 -91 49 -292 66
-309 12 -13 12 -26 -1 -26 -5 0 -21 25 -35 55 -15 30 -35 61 -46 69 -14 9 -18
21 -14 37 3 15 -9 63 -31 124 -104 287 -123 351 -136 460 -7 61 -12 133 -12
160 4 132 24 380 38 465 10 55 16 136 14 192 -1 53 1 100 5 105 23 22 33 -60
27 -223 -1 -34 3 -65 8 -68 14 -8 55 61 64 109 25 129 31 197 21 228 -25 72
-25 74 8 111 17 20 35 36 40 36 5 0 9 -29 9 -64z m1213 -48 c17 -21 23 -48 10
-48 -5 0 -16 14 -25 30 -18 32 -37 37 -70 19 -11 -6 -23 -8 -26 -4 -8 8 19 25
29 19 4 -2 11 0 14 6 9 15 46 3 68 -22z m3887 -27 c0 -12 -97 -84 -150 -111
-25 -12 -56 -31 -70 -40 -38 -27 -95 -39 -155 -33 -58 6 -69 20 -41 52 8 9 26
40 41 69 l27 52 54 0 c30 0 54 -3 54 -6 0 -3 -9 -19 -21 -35 -38 -53 -14 -52
66 4 74 51 85 55 138 56 31 1 57 -3 57 -8z m401 -83 c38 -39 55 -73 62 -125 5
-40 2 -45 -34 -78 -42 -38 -66 -44 -76 -19 -3 8 -11 13 -18 10 -7 -2 -3 15 11
44 38 80 17 113 -105 157 l-24 9 33 31 c33 31 33 31 77 16 24 -8 57 -29 74
-45z m4626 -21 c17 -29 59 -84 92 -123 l60 -71 -55 29 c-62 34 -204 167 -204
191 0 14 13 19 65 25 6 1 24 -22 42 -51z m-4877 -55 c0 -3 -5 -21 -12 -39 -9
-24 -18 -33 -34 -33 -13 0 -26 5 -30 11 -3 6 -15 9 -25 6 -10 -3 -21 -1 -24 4
-6 9 12 50 26 59 10 7 99 0 99 -8z m1767 12 c-3 -3 -12 -4 -19 -1 -8 3 -5 6 6
6 11 1 17 -2 13 -5z m550 -45 c44 -7 68 -7 82 0 26 15 68 14 187 -4 54 -8 168
-19 252 -25 85 -5 163 -11 175 -12 12 0 -16 -4 -63 -9 -126 -11 -315 -10 -400
2 -41 6 -102 12 -136 14 -33 2 -92 13 -130 25 -86 27 -97 31 -59 25 17 -3 58
-10 92 -16z m-3557 -8 c0 -12 -20 -25 -27 -18 -7 7 6 27 18 27 5 0 9 -4 9 -9z
m-6040 -16 c0 -9 -9 -15 -25 -15 -26 0 -34 15 -12 23 23 10 37 7 37 -8z m7815
5 c-3 -5 0 -10 8 -10 17 0 37 -96 37 -177 0 -63 -20 -75 -56 -36 -13 14 -24
30 -24 36 0 5 -8 6 -17 2 -10 -4 -22 -7 -28 -6 -11 1 -59 9 -62 10 -10 4 126
191 138 191 6 0 7 -4 4 -10z m-7903 -42 c-7 -7 -12 -8 -12 -2 0 14 12 26 19
19 2 -3 -1 -11 -7 -17z m9717 -43 c20 -1 90 -21 156 -44 162 -57 375 -121 400
-121 18 1 17 2 -5 16 -25 14 -25 14 13 9 114 -16 107 -12 107 -57 0 -34 -3
-39 -17 -33 -10 4 -31 11 -48 16 -101 28 -226 66 -330 99 -140 45 -310 90
-340 90 -11 0 -27 5 -35 11 -11 8 -7 9 17 4 29 -6 32 -4 26 11 -5 13 -3 15 7
9 7 -4 29 -9 49 -10z m-8037 -118 c-6 -12 -13 -29 -15 -37 -4 -12 -6 -11 -13
4 -5 13 -3 21 4 24 7 2 12 12 12 21 0 10 3 21 7 25 13 12 16 -15 5 -37z
m12102 -37 c40 -99 26 -91 148 -86 68 3 107 2 103 -4 -4 -6 -15 -10 -26 -10
-11 0 -37 -9 -59 -20 -22 -11 -46 -20 -53 -20 -8 0 -30 -11 -50 -24 -19 -13
-38 -22 -41 -19 -9 9 -84 -18 -90 -33 -3 -7 4 -22 15 -35 30 -35 22 -44 -13
-17 -40 30 -70 41 -92 32 -33 -12 -27 -23 106 -194 63 -80 92 -142 127 -263
47 -163 40 -214 -13 -87 -16 39 -40 86 -55 104 -14 19 -35 47 -46 62 -11 15
-48 59 -82 98 -119 135 -194 347 -147 414 21 30 53 28 94 -8 45 -38 61 -39 54
-1 -7 35 18 48 60 31 65 -24 77 -4 42 70 -14 29 -23 57 -20 62 8 13 17 1 38
-52z m-4027 44 c-3 -3 -12 -4 -19 -1 -8 3 -5 6 6 6 11 1 17 -2 13 -5z m46 -11
c-7 -2 -19 -2 -25 0 -7 3 -2 5 12 5 14 0 19 -2 13 -5z m84 -19 c-3 -3 -12 -4
-19 -1 -8 3 -5 6 6 6 11 1 17 -2 13 -5z m2968 -14 c3 -6 -1 -7 -9 -4 -18 7
-21 14 -7 14 6 0 13 -4 16 -10z m-2238 -26 c-3 -3 -12 -4 -19 -1 -8 3 -5 6 6
6 11 1 17 -2 13 -5z m30 -20 c-3 -3 -12 -4 -19 -1 -8 3 -5 6 6 6 11 1 17 -2
13 -5z m-8083 -56 c5 -25 15 -85 17 -108 4 -30 -1 -193 -5 -189 -10 9 -36 202
-36 259 0 59 15 82 24 38z m7871 4 c-3 -3 -11 0 -18 7 -9 10 -8 11 6 5 10 -3
15 -9 12 -12z m2350 -7 c22 -13 48 -25 57 -25 10 0 35 -7 55 -15 52 -22 101
-92 189 -275 54 -110 84 -205 91 -287 5 -61 2 -80 -16 -124 -25 -56 -24 -75 4
-174 13 -44 16 -81 12 -140 -6 -93 -70 -469 -91 -535 l-15 -45 0 71 c-1 40 3
116 9 170 27 273 31 424 10 424 -8 0 -64 -177 -86 -276 -11 -47 -19 -164 -25
-369 -12 -376 -10 -359 -31 -363 -38 -7 -65 106 -80 346 -9 153 -9 217 1 310
12 116 45 268 76 353 94 254 90 240 89 334 -1 108 -34 217 -125 412 -16 34
-29 67 -29 74 0 6 -35 45 -77 85 -81 77 -86 91 -18 49z m-2178 9 c-3 -3 -12
-4 -19 -1 -8 3 -5 6 6 6 11 1 17 -2 13 -5z m2670 -49 c40 -45 103 -150 103
-171 0 -8 8 -27 17 -41 16 -25 22 -53 39 -214 6 -58 -6 -99 -29 -99 -23 1
-170 260 -201 354 -9 26 -21 57 -27 67 -16 30 27 24 94 -12 32 -17 62 -29 68
-27 24 8 -72 104 -171 169 -25 16 -24 17 24 15 43 -2 53 -7 83 -41z m-11524
-132 c20 -23 35 -79 18 -69 -6 4 -11 13 -11 20 0 24 -38 49 -67 43 -26 -5 -26
-4 -8 9 25 19 49 18 68 -3z m2533 -49 c-5 -13 -10 -14 -18 -6 -6 6 -8 18 -4
28 5 13 10 14 18 6 6 -6 8 -18 4 -28z m9562 -50 l2 -29 -14 25 c-19 31 -20 43
-3 38 6 -3 13 -18 15 -34z m-11281 -136 c-2 -18 -4 -4 -4 32 0 36 2 50 4 33 2
-18 2 -48 0 -65z m2273 18 c0 -18 -62 -58 -73 -47 -4 4 -3 20 4 34 9 20 20 27
41 27 17 0 28 -5 28 -14z m-2242 -196 c5 -30 13 -64 17 -74 6 -13 5 -17 -2
-13 -20 13 -43 100 -42 161 1 59 2 60 10 21 4 -22 12 -65 17 -95z m7602 80
c11 -6 24 -19 30 -30 10 -18 8 -18 -24 3 -46 29 -50 51 -6 27z m3479 -37 c0
-25 -1 -26 -9 -8 -12 27 -12 35 0 35 6 0 10 -12 9 -27z m-11995 -8 c18 -27 22
-85 6 -85 -5 0 -10 7 -10 15 0 49 -40 81 -68 53 -8 -8 -12 -9 -12 -1 0 48 56
60 84 18z m-1842 -54 c19 -29 19 -33 4 -30 -9 2 -26 19 -38 38 -19 29 -19 33
-4 30 9 -2 26 -19 38 -38z m6991 -27 c23 -23 -34 -44 -77 -28 -25 10 -19 25 8
18 13 -3 27 -1 30 5 8 12 29 15 39 5z m4659 -26 c19 -18 53 -46 76 -62 90 -64
294 -287 417 -456 11 -15 40 -54 65 -86 118 -156 143 -212 138 -316 -3 -68 -1
-69 -38 15 -5 12 -26 49 -45 82 -20 33 -40 69 -45 81 -13 32 -82 139 -92 143
-5 1 -20 20 -33 41 -14 21 -57 76 -98 122 -40 46 -85 101 -100 123 -38 56
-155 188 -176 198 -9 5 -28 26 -41 48 -14 21 -34 42 -45 45 -22 7 -35 22 -35
42 0 20 15 14 52 -20z m-5132 -88 c0 -61 -35 -318 -44 -327 -8 -8 2 161 15
250 5 38 7 73 3 78 -3 6 -3 27 1 46 9 52 25 23 25 -47z m-3658 -85 c49 -87 65
-128 84 -212 17 -78 20 -83 44 -83 41 0 130 -48 130 -71 0 -22 -15 -25 -23 -5
-9 22 -64 48 -95 44 -25 -3 -27 -6 -25 -48 7 -140 7 -220 1 -260 -4 -25 -12
-97 -18 -160 -6 -63 -15 -129 -21 -146 -5 -17 -6 -58 -3 -91 7 -68 -2 -126
-16 -103 -14 22 -11 161 5 230 8 36 18 115 22 175 7 97 5 153 -12 360 -2 28
-11 79 -19 115 -9 36 -23 99 -32 140 -14 64 -67 184 -95 215 -5 5 -9 18 -9 29
0 14 9 3 27 -29 14 -28 39 -72 55 -100z m-1302 125 c0 -5 -7 -10 -16 -10 -8 0
-12 5 -9 10 3 6 10 10 16 10 5 0 9 -4 9 -10z m6217 -27 c2 -6 -4 -13 -14 -15
-21 -5 -73 10 -73 21 0 12 83 7 87 -6z m6287 -142 c1 -85 0 -88 -42 -161 -23
-41 -54 -106 -68 -146 -28 -79 -28 -97 0 -239 40 -201 48 -285 36 -369 -13
-89 -54 -223 -75 -245 -21 -21 -29 44 -20 153 13 139 9 169 -50 343 -31 93
-59 196 -65 245 -11 82 -11 86 16 144 15 32 27 66 26 76 0 9 -21 49 -46 90
-52 86 -65 126 -45 138 18 11 63 -13 87 -47 10 -16 27 -52 36 -80 10 -29 23
-53 29 -53 22 0 115 69 139 102 19 27 23 46 23 100 0 44 3 61 9 51 5 -9 9 -55
10 -102z m579 72 c-9 -15 -20 -30 -23 -33 -3 -3 -18 -22 -33 -42 -15 -21 -33
-38 -39 -38 -6 0 -8 3 -5 7 4 3 2 12 -3 18 -8 9 3 22 40 49 28 20 56 48 62 62
7 15 14 22 16 16 2 -6 -5 -23 -15 -39z m-11557 -15 c7 -18 26 -66 43 -107 39
-92 39 -110 1 -49 -17 27 -30 50 -30 53 0 15 -52 115 -60 115 -6 0 -10 5 -10
10 0 6 10 10 23 10 16 0 25 -9 33 -32z m-990 -89 c13 -51 24 -103 24 -114 0
-12 15 -42 33 -66 17 -24 39 -54 47 -65 52 -75 131 -174 139 -174 5 0 2 28 -5
63 -16 76 -17 87 -4 87 6 0 10 -8 10 -19 0 -10 7 -35 15 -55 8 -19 20 -59 26
-88 13 -64 33 -98 58 -98 10 0 24 -7 31 -15 7 -8 21 -15 30 -15 32 0 59 -132
31 -149 -13 -8 -17 -220 -6 -293 9 -57 0 -62 -21 -12 -19 45 -29 255 -17 340
11 75 1 114 -31 114 -15 0 -27 -9 -34 -25 -6 -14 -17 -25 -24 -25 -12 0 -48
72 -48 97 0 6 -21 33 -47 60 -27 27 -66 75 -88 108 -40 58 -77 88 -60 49 4
-11 12 -41 17 -69 5 -27 17 -72 28 -100 10 -27 21 -65 24 -83 7 -41 95 -228
134 -285 16 -23 50 -78 75 -122 46 -80 54 -92 88 -130 20 -22 72 -156 64 -164
-3 -2 -16 1 -30 7 -14 6 -25 9 -25 7 0 -3 22 -27 49 -54 48 -48 69 -86 57 -99
-11 -10 -133 117 -205 213 -88 117 -94 128 -124 210 -14 39 -39 105 -56 148
-17 43 -31 80 -31 83 0 12 28 -23 54 -68 15 -27 33 -51 38 -55 6 -3 9 -2 6 3
-3 5 -21 43 -40 84 -102 213 -126 283 -153 440 -23 130 -29 151 -68 207 -49
72 -89 158 -85 180 3 13 12 4 32 -32 53 -93 57 -98 68 -87 7 7 7 21 0 44 -6
18 -14 56 -18 83 -10 80 14 42 42 -66z m2327 44 c14 -27 13 -53 -2 -53 -10 0
-31 46 -31 65 0 24 18 17 33 -12z m2197 -60 c0 -23 7 -73 15 -112 29 -137 152
-533 185 -592 28 -51 25 -72 -4 -25 -16 26 -25 34 -29 25 -4 -10 -6 -10 -6 3
-1 9 -6 20 -13 24 -8 5 -9 1 -4 -12 8 -23 -70 61 -88 96 -14 25 -62 214 -86
335 -12 57 -9 167 7 283 7 53 23 36 23 -25z m-6913 36 c17 -7 23 -13 15 -16
-8 -3 -24 -1 -35 5 -12 6 -29 13 -37 15 -10 4 -7 6 7 6 12 1 34 -4 50 -10z
m13866 -71 c35 -115 68 -381 53 -427 -14 -44 -33 -51 -41 -14 -4 15 -11 37
-15 48 -5 11 -11 31 -12 45 l-3 25 -14 -24 c-9 -17 -10 -29 -3 -45 12 -25 44
-193 45 -240 1 -43 -59 -142 -78 -126 -6 5 -15 7 -18 3 -12 -12 -7 -23 10 -23
16 0 13 -10 -4 -13 -4 -1 -24 -38 -43 -82 -48 -108 -62 -133 -112 -195 -71
-88 -176 -242 -198 -289 -34 -73 -70 -189 -64 -206 3 -8 12 -15 20 -15 21 0
17 -28 -6 -35 -31 -10 -59 4 -66 31 -21 82 73 343 156 439 26 30 120 174 160
246 19 35 66 115 103 177 38 63 66 116 63 119 -2 3 -30 -7 -61 -22 -31 -14
-59 -24 -62 -21 -7 6 74 115 100 134 27 21 22 76 -13 124 -35 48 -37 58 -11
51 17 -4 18 1 13 85 -4 83 -2 96 27 172 17 45 31 96 31 114 0 28 6 46 15 46 2
0 14 -37 28 -82z m-13548 -28 c3 -6 -1 -7 -9 -4 -18 7 -21 14 -7 14 6 0 13 -4
16 -10z m1715 -15 c0 -28 -15 -34 -24 -10 -4 11 -13 14 -33 9 -30 -7 -83 -51
-83 -68 0 -6 -9 -22 -20 -36 l-20 -25 0 29 c0 23 12 41 51 78 43 40 57 48 90
48 35 0 39 -3 39 -25z m6941 -78 c-20 -21 -21 -21 -21 -2 0 11 3 30 6 43 l7
23 15 -22 c13 -19 13 -23 -7 -42z m3139 45 c0 -10 -85 -52 -106 -52 -47 0 22
39 104 59 1 1 2 -3 2 -7z m-10060 -28 c0 -8 -4 -14 -10 -14 -5 0 -10 9 -10 21
0 11 5 17 10 14 6 -3 10 -13 10 -21z m9890 -44 c0 -5 -7 -10 -15 -10 -8 0 -15
5 -15 10 0 6 7 10 15 10 8 0 15 -4 15 -10z m-12299 -176 c0 -76 4 -155 9 -174
14 -57 19 -398 11 -655 -5 -132 -5 -280 0 -330 20 -209 20 -207 8 -200 -16 10
-29 -14 -29 -52 0 -18 -5 -33 -11 -33 -10 0 -7 146 7 251 3 25 1 110 -5 189
-9 127 -9 144 5 155 15 10 15 39 5 296 -15 400 -19 711 -9 701 5 -5 9 -72 9
-148z m12469 152 c0 -9 -78 -56 -93 -56 -25 0 -10 25 26 43 29 14 67 22 67 13z
m-11370 -87 c0 -5 -9 -9 -20 -9 -11 0 -20 -7 -20 -16 0 -10 7 -14 23 -12 21 3
22 -1 23 -64 1 -77 -10 -86 -51 -42 -29 31 -31 47 -10 64 17 14 20 40 5 40
-16 0 -12 32 7 52 12 14 19 15 30 7 7 -6 13 -15 13 -20z m11240 23 c0 -15 -24
-32 -47 -32 -29 0 -30 14 0 28 27 13 47 15 47 4z m-5173 -209 c-2 -21 -4 -6
-4 32 0 39 2 55 4 38 2 -18 2 -50 0 -70z m-4608 41 c27 -27 17 -25 -31 8 -14
10 -32 18 -39 18 -23 0 -81 -53 -97 -89 l-17 -36 -3 33 c-3 33 2 41 53 81 39
30 97 24 134 -15z m7202 -4 c36 -32 41 -41 30 -49 -9 -6 -21 -6 -32 0 -10 5
-32 9 -49 9 -25 0 -31 3 -26 16 3 9 9 27 12 40 3 13 10 24 14 24 4 0 27 -18
51 -40z m-5888 6 c9 -7 17 -16 17 -20 0 -4 9 -16 20 -28 11 -12 20 -28 20 -35
0 -7 4 -13 9 -13 5 0 11 -10 13 -22 2 -17 10 -23 31 -23 15 -1 34 -8 43 -17
22 -22 11 -52 -16 -45 -18 4 -20 0 -20 -35 0 -32 -3 -39 -17 -36 -10 2 -23 18
-29 36 -17 54 -32 64 -114 72 -8 1 0 6 19 12 23 6 37 6 44 -1 19 -19 29 -12
22 17 -11 46 -54 111 -85 127 -27 14 -30 14 -49 -11 -12 -15 -21 -37 -21 -50
0 -15 -6 -24 -15 -24 -19 0 -19 28 0 74 15 34 18 36 63 36 26 0 55 -7 65 -14z
m11093 -83 c15 -63 18 -121 7 -109 -12 12 -40 139 -35 159 7 26 13 15 28 -50z
m-892 41 c9 -22 -1 -51 -19 -58 -11 -4 -15 2 -15 18 0 49 21 73 34 40z
m-11110 -16 c21 -30 20 -48 -2 -48 -25 0 -42 19 -42 47 0 29 24 30 44 1z
m1723 -27 c-26 -29 -37 -51 -42 -88 -8 -61 -13 -70 -48 -78 l-29 -8 7 49 c10
65 28 93 83 132 62 43 72 40 29 -7z m5155 -1 c24 -22 18 -26 -13 -10 -10 6
-19 15 -19 20 0 15 9 12 32 -10z m-7449 -84 c6 -63 -1 -106 -14 -84 -11 17
-12 151 0 144 4 -3 11 -30 14 -60z m3681 55 c3 -5 -1 -12 -10 -15 -22 -9 -24
-8 -24 9 0 16 25 21 34 6z m-2329 -41 c-5 -8 -11 -8 -17 -2 -6 6 -7 16 -3 22
5 8 11 8 17 2 6 -6 7 -16 3 -22z m2236 -14 c19 -7 42 -16 52 -19 16 -6 15 -10
-9 -37 -32 -35 -65 -39 -111 -10 -39 23 -42 42 -10 63 28 20 36 20 78 3z
m6937 -52 c-4 -3 -12 5 -18 18 -12 22 -12 22 6 6 10 -10 15 -20 12 -24z
m-10316 -1 c17 -21 51 -79 61 -106 12 -31 -12 -8 -32 31 -10 20 -28 46 -40 56
-47 43 -105 -30 -117 -148 -7 -71 -23 -90 -25 -28 -2 53 2 77 12 80 5 2 9 15
9 28 0 13 5 24 10 24 6 0 10 5 10 12 0 20 53 68 75 68 12 0 29 -8 37 -17z
m1273 -19 c42 -46 138 -240 133 -269 -3 -11 1 -27 9 -33 16 -16 17 -32 0 -32
-6 0 -17 15 -23 33 -7 17 -17 48 -24 67 -21 62 -82 181 -107 211 -32 38 -74
39 -102 3 -12 -15 -21 -39 -21 -53 0 -41 -11 -101 -21 -107 -14 -8 -10 106 4
147 19 56 35 69 79 69 33 0 46 -6 73 -36z m2215 32 c0 -2 -7 -7 -16 -10 -8 -3
-12 -2 -9 4 6 10 25 14 25 6z m6868 -60 c6 -13 20 -27 31 -31 12 -3 21 -12 21
-18 0 -7 3 -22 6 -34 4 -14 2 -23 -5 -23 -6 0 -11 8 -11 18 0 9 -11 29 -24 43
-29 31 -50 69 -38 69 5 0 14 -11 20 -24z m-2271 -58 c-3 -8 -6 -5 -6 6 -1 11
2 17 5 13 3 -3 4 -12 1 -19z m2439 -59 c13 -40 27 -65 37 -67 15 -3 15 -6 2
-26 -11 -16 -18 -76 -26 -212 -6 -104 -14 -205 -19 -224 l-8 -35 -2 30 c-1 17
-1 67 0 113 1 53 -3 88 -10 98 -23 27 -38 229 -26 339 3 22 5 44 5 48 1 5 7 7
14 5 6 -2 21 -33 33 -69z m-12643 14 c-7 -2 -21 -2 -30 0 -10 3 -4 5 12 5 17
0 24 -2 18 -5z m12694 -19 c15 -32 7 -50 -13 -33 -14 12 -20 59 -6 59 4 0 12
-12 19 -26z m-2922 -14 c3 -5 1 -10 -4 -10 -6 0 -11 5 -11 10 0 6 2 10 4 10 3
0 8 -4 11 -10z m-6515 -71 c0 -5 -4 -9 -10 -9 -5 0 -10 7 -10 16 0 8 5 12 10
9 6 -3 10 -10 10 -16z m-950 -7 c0 -10 -41 -35 -47 -28 -9 8 17 36 33 36 8 0
14 -3 14 -8z m42 -9 c31 -37 31 -47 1 -23 -18 14 -32 28 -32 33 -1 13 16 7 31
-10z m10207 -37 c-2 -3 -83 -44 -179 -91 -96 -48 -195 -102 -220 -119 -25 -18
-92 -56 -150 -85 -58 -30 -109 -57 -115 -61 -5 -4 -46 -27 -90 -50 -44 -24
-100 -56 -125 -71 -111 -68 -232 -139 -236 -139 -3 0 -20 -11 -38 -25 -18 -14
-37 -25 -42 -25 -6 0 -32 -14 -60 -31 -27 -18 -62 -36 -79 -42 -34 -12 -211
-132 -222 -151 -5 -7 -17 -18 -28 -24 -11 -5 -68 -46 -126 -89 -196 -144 -260
-188 -322 -221 -34 -18 -71 -42 -83 -52 -11 -11 -24 -20 -28 -20 -13 0 -150
-97 -175 -124 -31 -33 -55 -35 -45 -3 10 33 23 45 69 66 59 26 190 115 251
170 69 63 77 69 211 160 65 44 147 100 183 125 36 25 71 46 78 46 16 0 173
101 217 139 84 71 326 222 490 303 50 25 124 65 165 90 95 56 295 158 310 158
11 0 52 19 250 114 98 47 156 68 139 52z m-5989 -77 c5 10 8 9 13 -2 6 -16
-30 -103 -39 -94 -3 3 -2 34 2 69 4 35 10 52 12 39 3 -16 6 -20 12 -12z
m-4500 -17 c-1 -9 -19 -30 -40 -47 -22 -16 -47 -47 -57 -67 -29 -64 -47 -40
-19 26 15 37 95 118 108 110 4 -3 8 -13 8 -22z m9457 -12 c6 -22 18 -26 28
-10 10 16 55 12 55 -4 0 -20 -39 -46 -57 -39 -8 3 -19 -1 -26 -10 -7 -8 -88
-54 -182 -102 -93 -48 -208 -112 -254 -142 -79 -51 -86 -54 -98 -37 -26 36
-11 50 76 74 40 10 71 34 199 148 57 51 207 139 240 141 8 1 16 -8 19 -19z
m-8148 1 c9 -6 1 -10 -25 -13 -44 -6 -49 -4 -39 11 7 13 45 14 64 2z m12631
-37 c22 -9 40 -22 40 -29 0 -33 -91 -105 -133 -105 -8 0 -29 14 -46 32 -28 29
-30 33 -15 49 8 9 16 23 18 31 6 42 63 51 136 22z m-11503 -48 c18 -18 30 -36
27 -39 -6 -6 -74 57 -74 68 0 13 18 2 47 -29z m-140 -13 c47 -28 111 -101 144
-165 15 -29 19 -55 17 -101 -2 -34 -7 -62 -13 -62 -5 0 -18 25 -28 55 -43 127
-60 159 -113 214 -30 31 -64 56 -74 56 -20 0 -26 11 -13 23 12 13 34 7 80 -20z
m-4290 -13 c-16 -5 -40 -21 -53 -37 -19 -21 -23 -23 -18 -8 13 36 36 55 68 54
l31 -1 -28 -8z m73 -10 c0 -5 -4 -10 -10 -10 -5 0 -10 5 -10 10 0 6 5 10 10
10 6 0 10 -4 10 -10z m6365 -249 c-9 -69 -19 -128 -22 -131 -3 -3 -2 18 1 45
4 28 8 91 11 140 2 50 8 115 12 145 l8 55 3 -64 c2 -35 -4 -120 -13 -190z
m7385 241 c0 -5 -8 -26 -19 -48 -17 -37 -46 -253 -43 -334 0 -19 -8 -48 -18
-65 -10 -16 -30 -60 -43 -96 -26 -68 -85 -184 -118 -231 -39 -55 -9 -52 48 4
l43 42 0 -27 c0 -32 -19 -72 -61 -131 -40 -54 -119 -139 -125 -134 -2 3 12 39
31 82 20 42 33 81 29 87 -4 7 -38 -20 -83 -64 -73 -73 -239 -187 -270 -187
-29 0 -115 -47 -168 -90 -42 -35 -50 -46 -41 -57 9 -11 2 -24 -36 -62 -44 -45
-47 -51 -55 -124 -8 -71 -26 -115 -68 -167 -52 -65 -71 -84 -109 -111 -89 -61
-316 -160 -332 -144 -5 5 80 101 109 122 8 6 39 21 68 32 46 17 111 62 162
111 26 26 55 73 73 123 29 78 20 81 -82 31 -81 -40 -96 -51 -167 -136 -105
-124 -200 -216 -271 -258 -106 -64 -220 -92 -292 -72 -37 11 -27 24 32 43 67
20 122 52 201 116 33 27 89 69 125 93 78 53 81 55 134 128 67 89 160 176 239
222 40 22 90 57 112 76 134 118 232 176 369 215 76 23 85 28 156 99 80 80 88
91 119 158 11 24 29 56 41 71 11 16 20 36 20 44 0 8 18 57 40 110 21 52 45
117 51 143 7 27 17 56 24 64 7 8 24 51 38 96 25 80 76 193 98 220 12 15 39 19
39 6z m-7824 -10 c6 -4 16 -17 23 -30 10 -18 9 -23 -3 -28 -36 -14 -75 17 -63
50 7 17 25 21 43 8z m7444 -9 c0 -22 -17 -50 -24 -42 -5 5 15 59 22 59 1 0 2
-8 2 -17z m-13190 -38 c32 -34 18 -44 -15 -11 -18 18 -33 25 -46 21 -11 -4
-19 -2 -19 4 0 21 56 11 80 -14z m13705 -173 c-21 -63 -49 -94 -118 -131 -49
-27 -56 -28 -47 -12 6 11 16 24 23 28 7 4 32 40 56 78 24 39 56 88 70 110 l26
40 3 -33 c2 -18 -4 -54 -13 -80z m-10818 -10 c39 -59 90 -129 113 -157 55 -68
164 -234 157 -241 -3 -3 -18 11 -34 32 -15 20 -43 52 -60 71 -18 18 -40 48
-49 66 -9 17 -36 57 -59 87 -95 125 -169 251 -148 250 5 -1 40 -49 80 -108z
m-2667 37 c0 -17 -4 -28 -10 -24 -5 3 -10 17 -10 31 0 13 5 24 10 24 6 0 10
-14 10 -31z m10194 -64 c9 -14 16 -28 16 -33 0 -5 -24 -32 -52 -61 -59 -57
-94 -66 -117 -29 -12 20 -11 24 25 52 88 71 82 63 59 73 -11 4 -21 14 -23 21
-1 8 2 11 8 7 5 -3 13 1 16 9 5 14 8 14 29 0 13 -8 31 -26 39 -39z m-11850
-36 c72 -30 88 -31 66 -4 -24 29 7 15 39 -17 17 -18 47 -46 66 -63 19 -16 35
-35 35 -40 0 -6 12 -24 28 -41 45 -50 55 -64 46 -64 -5 0 -22 13 -39 28 -54
49 -149 119 -175 127 -14 4 -64 27 -111 51 -48 24 -91 44 -98 44 -6 0 -11 5
-11 10 0 16 78 1 154 -31z m1656 -69 c0 -53 -4 -90 -10 -90 -11 0 -14 162 -3
173 12 13 13 7 13 -83z m160 43 c0 -55 -5 -54 -14 5 -4 26 -2 42 4 42 5 0 10
-21 10 -47z m-71 0 c7 -24 7 -41 1 -47 -13 -13 -17 -8 -25 42 -9 53 10 57 24
5z m6371 0 c0 -26 -25 -63 -42 -63 -15 0 -8 49 9 70 24 27 33 25 33 -7z
m-6787 0 c3 -5 -10 -8 -28 -8 -18 0 -31 3 -28 8 2 4 15 7 28 7 13 0 26 -3 28
-7z m-1548 -51 c-8 -2 -22 3 -30 12 -24 23 -18 27 15 8 20 -11 25 -18 15 -20z
m1380 18 c-3 -5 -15 -10 -26 -10 -11 0 -17 5 -14 10 3 6 15 10 26 10 11 0 17
-4 14 -10z m16393 -16 c32 -22 30 -72 -3 -80 -33 -8 -61 16 -67 57 -3 16 -2
31 0 34 11 10 48 4 70 -11z m-16456 -16 c-7 -7 -12 -8 -12 -2 0 14 12 26 19
19 2 -3 -1 -11 -7 -17z m273 12 c3 -5 1 -10 -4 -10 -6 0 -11 5 -11 10 0 6 2
10 4 10 3 0 8 -4 11 -10z m-1702 -37 c15 -3 30 -10 33 -14 9 -14 -35 -10 -66
6 -32 17 -41 31 -12 20 9 -3 29 -9 45 -12z m1724 -15 c-3 -8 -6 -5 -6 6 -1 11
2 17 5 13 3 -3 4 -12 1 -19z m13299 -71 c-11 -43 -113 -169 -155 -191 -15 -7
-53 -30 -86 -50 -103 -63 -376 -133 -421 -108 -18 10 -17 11 9 21 16 6 38 11
50 11 12 0 63 11 114 24 64 16 94 20 97 12 3 -6 16 1 30 17 14 16 34 30 44 32
10 2 32 16 49 32 16 15 49 42 73 58 23 17 77 68 119 114 75 83 93 89 77 28z
m-3232 17 c3 -8 2 -12 -4 -9 -6 3 -10 10 -10 16 0 14 7 11 14 -7z m-9827 -61
c-4 -17 -4 -17 -12 0 -4 9 -4 25 0 35 8 16 8 16 12 0 3 -10 3 -26 0 -35z
m-945 -55 c3 -25 2 -51 -2 -57 -9 -15 -43 -2 -36 14 2 7 8 34 11 59 9 56 21
49 27 -16z m1068 50 c0 -7 -5 -20 -10 -28 -8 -12 -10 -9 -10 13 0 15 5 27 10
27 6 0 10 -6 10 -12z m-1680 -13 c7 -8 8 -15 2 -15 -5 0 -15 7 -22 15 -7 8 -8
15 -2 15 5 0 15 -7 22 -15z m8060 -26 c0 -11 -5 -30 -12 -42 -7 -12 -11 -32
-9 -45 2 -17 -3 -25 -18 -29 -12 -3 -21 -13 -21 -23 0 -34 -49 -32 -50 2 0 19
26 59 47 73 12 9 23 24 23 34 0 30 11 51 26 51 8 0 14 -9 14 -21z m-6518 -21
c-9 -9 -12 -7 -12 12 0 19 3 21 12 12 9 -9 9 -15 0 -24z m4974 -64 c14 -38 32
-100 40 -139 8 -38 19 -92 24 -120 18 -89 20 -265 3 -313 -15 -39 -14 -44 1
-61 15 -17 16 -28 6 -102 -15 -112 -81 -304 -143 -415 -51 -93 -187 -244 -219
-244 -6 0 -16 8 -23 17 -12 16 -16 15 -54 -10 -22 -15 -45 -27 -51 -27 -5 0
-10 -3 -10 -7 -2 -96 -13 -196 -25 -219 -19 -36 -21 -64 -3 -46 7 7 16 12 20
12 16 0 8 -79 -12 -126 -22 -51 -20 -74 6 -74 8 0 14 -6 11 -12 -2 -7 -15 -12
-30 -10 -28 4 -67 -13 -67 -29 0 -5 12 -14 26 -20 25 -9 26 -11 9 -23 -14 -10
-15 -17 -7 -33 13 -24 7 -33 -23 -33 -29 0 -47 -23 -43 -52 2 -16 17 -30 51
-46 26 -12 47 -29 47 -37 0 -8 14 -22 30 -30 27 -14 29 -18 19 -38 -7 -12 -13
-23 -14 -25 -6 -7 -61 27 -84 52 -31 33 -56 35 -46 4 4 -13 9 -52 12 -86 5
-63 5 -64 -18 -60 -18 2 -33 19 -57 65 l-33 63 -47 -6 c-97 -11 -165 -50 -174
-99 -2 -14 -13 -21 -38 -25 -30 -4 -36 -10 -46 -45 -7 -22 -13 -71 -14 -110
-1 -38 -5 -83 -9 -100 l-7 -30 -21 33 c-11 18 -31 71 -43 118 -18 65 -27 84
-41 84 -16 0 -17 -9 -13 -92 5 -83 -5 -232 -21 -313 -5 -28 0 -34 73 -87 91
-66 110 -75 177 -79 100 -5 145 0 152 18 8 20 -30 53 -62 53 -23 0 -39 30 -70
128 l-7 23 54 -26 c29 -15 63 -36 75 -47 21 -20 28 -19 63 0 104 58 110 58 65
-3 -31 -43 -38 -63 -44 -130 -5 -53 -8 -60 -26 -58 -11 2 -79 3 -152 3 l-131
1 -75 48 c-109 72 -113 73 -136 59 -27 -17 -54 6 -48 41 4 19 -5 35 -43 73
-43 44 -62 53 -98 49 -6 -1 -20 3 -30 8 -14 9 -13 10 11 11 17 0 27 5 27 15 0
8 -4 15 -10 15 -11 0 -70 84 -70 99 0 20 15 11 84 -54 38 -36 73 -65 77 -65 5
0 18 -10 30 -22 20 -21 21 -22 16 -3 -15 56 -17 86 -8 103 13 25 -20 128 -84
255 -25 50 -44 91 -43 92 2 1 66 7 143 13 141 12 271 34 307 53 16 9 19 18 15
47 -3 21 -8 47 -12 59 -6 18 -2 25 20 35 26 12 29 10 60 -26 32 -38 34 -39 64
-27 54 23 118 91 131 141 6 25 16 61 22 80 9 29 8 36 -6 45 -10 5 -25 16 -34
23 -15 11 -12 12 18 10 42 -4 48 20 10 39 -14 7 -43 30 -65 51 -33 32 -50 41
-94 46 -49 6 -53 6 -46 -11 13 -30 11 -176 -2 -203 -7 -14 -19 -41 -28 -60
-29 -67 -106 -87 -211 -55 -27 8 -61 15 -76 15 -33 0 -48 24 -48 77 0 22 -6
46 -12 55 -19 24 -103 48 -161 46 -29 -1 -65 2 -82 5 -16 4 -90 3 -164 -2
-109 -8 -142 -14 -180 -33 -41 -21 -46 -28 -49 -62 -3 -29 2 -43 20 -61 13
-13 28 -28 33 -34 25 -26 84 -71 93 -71 5 0 20 -11 33 -25 13 -14 33 -31 43
-37 18 -10 19 -7 13 31 -5 37 -2 44 31 77 31 31 34 38 24 55 -18 29 -15 31 31
24 79 -12 87 -20 87 -91 0 -35 5 -66 11 -69 7 -5 5 -15 -6 -31 -18 -28 -10
-30 34 -8 22 11 36 13 43 6 17 -17 -32 -42 -82 -42 -26 0 -55 -7 -66 -15 -27
-21 -49 -18 -94 10 -44 28 -51 23 -18 -12 21 -23 21 -23 1 -23 -11 0 -38 12
-59 27 -21 14 -58 39 -81 55 -31 21 -46 41 -58 76 -9 26 -26 66 -37 90 -12 24
-22 62 -22 85 -1 24 -7 47 -16 54 -13 11 -13 15 4 28 11 8 31 15 44 15 19 0
22 4 17 20 -8 25 27 35 100 27 29 -3 57 -2 61 3 5 4 41 4 79 -1 39 -4 78 -6
88 -3 17 5 24 34 8 34 -5 0 -31 15 -59 33 -28 17 -75 47 -106 66 -62 37 -87
61 -65 61 18 0 183 -93 274 -154 39 -26 79 -49 90 -51 56 -11 123 -19 146 -17
26 3 26 2 33 -77 8 -90 1 -83 119 -112 121 -29 133 -27 158 26 11 24 18 49 14
55 -3 5 1 20 9 32 9 12 16 26 16 29 0 12 -84 49 -111 49 -13 0 -31 5 -39 11
-11 7 3 8 48 4 52 -6 62 -5 62 9 0 8 -11 23 -26 32 -29 20 -59 73 -47 84 4 5
19 10 33 12 23 3 26 10 37 78 7 41 17 85 23 98 5 13 10 36 10 53 0 82 71 138
180 143 8 1 13 8 11 16 -14 52 -13 70 5 77 11 4 25 16 33 26 14 19 14 19 28 1
24 -33 31 1 25 135 -3 90 -1 134 8 150 9 18 15 20 23 12 9 -9 12 -83 12 -249
0 -264 1 -269 63 -212 18 16 43 35 54 41 34 18 110 92 119 116 16 42 92 153
105 153 19 0 44 53 44 92 0 22 7 37 19 45 17 11 51 94 51 127 0 9 -13 25 -30
38 -38 28 -39 48 -1 48 40 0 59 22 66 78 3 26 8 63 10 83 4 31 0 40 -35 74
-22 22 -40 43 -40 47 0 12 38 10 45 -2 12 -20 26 -10 15 10 -9 16 -8 20 5 20
8 0 15 9 15 20 0 12 -7 20 -17 20 -13 0 -11 4 7 13 17 9 26 22 28 45 2 24 8
32 23 32 23 0 23 -2 3 85 -9 39 -20 88 -24 110 -5 22 -12 54 -16 70 -11 48 4
25 32 -51z m-4990 9 c-11 -11 -19 6 -11 24 8 17 8 17 12 0 3 -10 2 -21 -1 -24z
m2020 -30 c-11 -11 -19 6 -11 24 8 17 8 17 12 0 3 -10 2 -21 -1 -24z m-3020
-39 c-12 -31 -25 -3 -13 29 11 29 12 30 15 9 2 -13 1 -30 -2 -38z m94 -30 c0
-34 -4 -53 -10 -49 -5 3 -10 31 -10 61 0 34 4 53 10 49 6 -3 10 -31 10 -61z
m887 44 c-3 -8 -6 -5 -6 6 -1 11 2 17 5 13 3 -3 4 -12 1 -19z m-7 -38 c0 -5
-5 -10 -11 -10 -5 0 -7 5 -4 10 3 6 8 10 11 10 2 0 4 -4 4 -10z m-20 -55 c0
-8 -4 -15 -10 -15 -5 0 -10 7 -10 15 0 8 5 15 10 15 6 0 10 -7 10 -15z m11781
-16 c-5 -13 -24 -35 -43 -49 -18 -14 -51 -43 -72 -65 -38 -38 -54 -50 -106
-77 -14 -7 -34 -21 -44 -30 -22 -20 -56 -24 -56 -7 0 26 24 49 102 97 46 28
114 76 152 106 38 31 71 54 73 52 2 -2 -1 -14 -6 -27z m-11824 -91 c-3 -8 -6
-5 -6 6 -1 11 2 17 5 13 3 -3 4 -12 1 -19z m12223 7 c10 -12 4 -19 -36 -42
-26 -15 -73 -50 -103 -78 -31 -27 -70 -62 -88 -76 -26 -22 -31 -33 -30 -66 2
-36 4 -40 27 -38 39 3 40 3 50 30 5 14 17 25 27 25 13 0 14 -3 5 -12 -7 -7
-12 -24 -12 -39 0 -26 -4 -28 -47 -34 -27 -4 -57 -10 -68 -15 -11 -5 -65 -11
-120 -15 -55 -3 -112 -12 -126 -19 -16 -8 -46 -11 -76 -9 -31 3 -67 -1 -96
-11 -26 -9 -63 -16 -82 -16 -28 0 -35 4 -35 20 0 11 -1 20 -3 20 -30 0 -223
-33 -231 -39 -6 -5 -49 -15 -96 -21 -47 -7 -92 -19 -101 -26 -8 -8 -21 -14
-27 -14 -6 0 -14 -5 -18 -12 -5 -8 5 -9 37 -4 25 3 38 3 31 -2 -44 -29 81 -95
268 -142 25 -6 43 -5 62 4 24 13 29 11 71 -23 25 -20 50 -46 56 -58 6 -12 28
-33 49 -47 61 -38 82 -70 72 -107 -14 -49 -29 -61 -67 -54 -18 3 -39 3 -45 -1
-7 -4 -25 -8 -42 -8 -44 -1 -41 -18 7 -48 54 -35 88 -63 82 -70 -3 -3 -31 3
-61 13 -31 10 -77 21 -103 25 -42 5 -47 4 -48 -15 -1 -11 -9 -31 -17 -42 -14
-21 -13 -23 32 -46 40 -21 56 -24 109 -19 34 4 64 2 67 -2 8 -13 -30 -115 -46
-126 -18 -11 -300 16 -305 29 -2 6 16 16 39 23 45 14 108 52 108 65 0 16 -100
7 -135 -13 -20 -11 -46 -20 -58 -20 -28 -1 -129 -52 -135 -68 -2 -8 8 -12 28
-12 23 0 31 -4 27 -14 -3 -8 5 -18 19 -25 l25 -11 -54 -56 c-50 -52 -58 -56
-147 -79 -52 -14 -126 -30 -165 -36 -38 -6 -81 -17 -95 -24 -14 -7 -41 -15
-60 -18 -19 -3 -62 -11 -95 -18 -33 -6 -138 -13 -234 -14 -108 -2 -176 -7
-180 -13 -4 -6 -54 -18 -111 -26 -58 -8 -127 -20 -155 -25 -27 -5 -79 -10
-115 -10 -36 -1 -80 -5 -98 -10 -42 -12 -42 0 -1 65 67 103 129 295 129 397 0
26 5 47 10 47 13 0 50 37 50 50 0 19 -39 10 -58 -14 -14 -19 -22 -22 -31 -13
-14 14 -14 27 -1 27 19 0 50 35 50 55 0 12 6 27 13 34 10 10 8 12 -8 11 -11
-1 -33 -2 -49 -1 -24 1 -27 3 -16 16 7 8 18 15 26 15 7 0 20 7 29 16 13 14 22
14 65 4 28 -7 57 -9 66 -6 21 8 14 56 -11 70 -10 6 -41 25 -67 43 -27 17 -57
35 -68 38 -11 4 -20 13 -20 22 0 12 7 14 31 9 27 -5 30 -4 19 9 -7 8 -24 15
-39 15 -36 0 -101 46 -101 71 0 26 23 69 49 93 16 15 24 16 35 7 17 -14 29 0
20 22 -3 10 5 25 20 38 15 13 37 41 50 63 28 47 76 86 106 86 12 0 31 -11 44
-25 13 -14 29 -25 36 -25 6 0 24 -8 38 -19 59 -41 90 -52 116 -40 13 6 26 20
29 30 4 15 10 17 37 9 32 -9 84 1 158 31 13 5 34 9 47 9 19 0 29 9 42 37 28
56 60 75 105 63 21 -6 50 -22 65 -35 l28 -24 -48 -1 c-49 0 -87 -13 -87 -29 0
-10 100 -21 195 -22 54 0 161 23 311 66 59 17 94 19 94 5 0 -5 -12 -12 -27
-16 -89 -19 -67 -24 62 -13 61 5 137 12 170 14 93 8 234 36 248 49 11 10 47
24 117 42 36 9 54 25 39 35 -8 4 4 12 30 20 23 7 47 21 52 31 5 10 16 18 24
18 27 0 65 23 71 44 7 21 7 21 15 1 5 -15 1 -26 -19 -42 -15 -13 -32 -23 -37
-23 -6 0 -18 -8 -27 -17 -8 -10 -26 -26 -39 -35 -41 -31 5 -23 133 25 37 14
88 43 115 66 54 46 159 111 179 111 7 0 16 5 19 10 9 14 21 12 35 -5z m-13859
-12 c28 -5 30 -7 14 -14 -33 -13 -72 -10 -85 6 -11 13 -9 15 13 15 13 0 39 -3
58 -7z m7210 -28 c20 -11 43 -14 77 -10 36 5 67 0 130 -20 45 -14 82 -30 82
-35 0 -6 -3 -10 -7 -10 -5 0 -51 -7 -103 -15 -84 -13 -106 -13 -189 0 -106 17
-140 31 -103 41 12 3 22 10 22 14 0 12 -54 19 -61 9 -3 -6 -11 -3 -19 5 -10
13 -10 17 1 20 8 2 21 7 29 9 32 11 113 6 141 -8z m-5694 -11 c-3 -3 -12 -4
-19 -1 -8 3 -5 6 6 6 11 1 17 -2 13 -5z m113 2 c0 -3 -4 -8 -10 -11 -5 -3 -10
-1 -10 4 0 6 5 11 10 11 6 0 10 -2 10 -4z m-190 -33 c0 -5 -16 -19 -36 -32
l-35 -24 -22 22 -22 21 32 -6 c21 -4 39 -1 54 10 27 18 29 19 29 9z m4831 -29
c3 -16 17 -50 31 -76 14 -25 22 -50 17 -55 -4 -4 -9 -43 -10 -86 l-3 -77 -23
27 c-19 24 -29 57 -24 86 0 4 -3 7 -9 7 -6 0 -9 33 -9 79 0 44 -2 84 -5 90 -9
13 4 43 17 38 7 -2 14 -17 18 -33z m-4664 -9 c-15 -32 -22 -32 -23 0 -1 18 3
25 16 25 16 0 17 -3 7 -25z m4462 3 c5 -13 6 -27 4 -31 -7 -12 -31 25 -26 40
7 18 12 16 22 -9z m7052 -39 c13 -11 19 -18 12 -15 -6 4 -18 -1 -26 -9 -14
-13 -18 -12 -39 5 -19 16 -20 19 -5 20 9 0 17 5 17 10 0 16 16 12 41 -11z
m-5583 -21 c-13 -10 -32 -18 -43 -17 -20 0 -20 0 1 17 11 10 31 18 43 18 l22
0 -23 -18z m-5966 -36 c-7 -2 -12 -11 -13 -20 0 -10 -3 -12 -5 -5 -3 7 0 22 7
35 9 17 14 19 17 8 3 -7 0 -16 -6 -18z m12996 -8 c-9 -9 -21 -13 -28 -9 -14 9
5 25 30 25 12 0 12 -3 -2 -16z m-7358 -60 c66 -34 71 -39 64 -57 -7 -20 -45
-22 -77 -6 -63 32 -108 110 -54 93 12 -3 42 -17 67 -30z m7280 22 c0 -3 -4 -8
-10 -11 -5 -3 -10 -1 -10 4 0 6 5 11 10 11 6 0 10 -2 10 -4z m-12953 -38 c-3
-8 -6 -5 -6 6 -1 11 2 17 5 13 3 -3 4 -12 1 -19z m11200 -4 c-3 -3 -12 -4 -19
-1 -8 3 -5 6 6 6 11 1 17 -2 13 -5z m-5364 -33 c18 -7 18 -8 -1 -31 -17 -21
-22 -22 -36 -11 -35 30 -8 60 37 42z m-5848 -10 c3 -5 1 -12 -5 -16 -5 -3 -10
1 -10 9 0 18 6 21 15 7z m2970 -39 c-3 -3 -11 0 -18 7 -9 10 -8 11 6 5 10 -3
15 -9 12 -12z m-2985 -12 c0 -5 -4 -10 -10 -10 -5 0 -10 5 -10 10 0 6 5 10 10
10 6 0 10 -4 10 -10z m11379 -109 c33 -31 40 -41 24 -37 -12 4 -32 2 -44 -4
-15 -9 -24 -9 -32 -1 -6 6 -19 11 -29 11 -18 0 -22 9 -19 42 1 9 -3 19 -9 23
-8 5 -3 12 12 20 26 13 28 12 97 -54z m671 5 c0 -8 6 -16 14 -19 17 -7 96 11
114 25 10 9 19 5 37 -18 13 -16 21 -32 18 -36 -2 -5 -26 -8 -54 -8 l-49 0 0
-60 c0 -33 -4 -60 -9 -60 -4 0 -21 10 -35 21 -26 20 -27 25 -21 72 l7 50 -33
-5 c-40 -6 -99 8 -99 24 0 6 2 9 5 6 3 -3 25 0 48 8 54 17 57 17 57 0z m3380
0 c0 -33 -44 -48 -68 -24 -21 21 -13 28 28 28 22 0 40 -2 40 -4z m-15460 -10
c0 -3 -4 -8 -10 -11 -5 -3 -10 -1 -10 4 0 6 5 11 10 11 6 0 10 -2 10 -4z
m3754 -29 c8 -12 7 -23 -2 -38 -12 -18 -12 -23 0 -30 7 -5 16 -9 19 -9 13 0
59 -77 59 -98 0 -20 -7 -16 -53 30 -28 29 -70 62 -92 73 -22 10 -42 20 -44 22
-9 6 30 33 49 33 14 0 24 8 27 20 6 23 21 22 37 -3z m-504 -87 c0 -27 18 -34
46 -19 13 7 26 10 28 8 4 -4 -40 -135 -78 -234 -20 -51 -20 -75 0 -103 22 -32
38 -28 91 29 57 61 122 108 167 120 17 5 40 15 51 22 17 14 17 16 -15 61 -18
25 -31 48 -29 50 7 7 21 -5 61 -55 l37 -46 80 -7 c48 -4 95 -3 119 3 49 14
157 0 234 -29 70 -26 138 -83 121 -101 -10 -10 -16 -9 -30 3 -22 20 -106 62
-153 76 -47 16 -160 23 -160 11 0 -5 5 -9 10 -9 6 0 10 -5 10 -11 0 -7 -7 -8
-17 -4 -10 4 -51 10 -90 14 -88 8 -90 4 -30 -70 23 -29 55 -71 70 -93 16 -23
39 -52 52 -64 22 -23 25 -23 81 -12 33 7 106 13 164 14 58 1 111 5 118 10 9 5
11 21 6 52 -5 35 -3 44 9 44 17 0 27 -29 27 -87 0 -49 11 -46 -190 -62 -128
-10 -160 -16 -160 -32 0 -5 31 -51 69 -101 83 -113 151 -219 125 -196 -10 9
-64 78 -119 152 -55 74 -107 136 -115 138 -30 7 -168 -54 -253 -112 -25 -16
-52 -30 -60 -30 -9 0 -20 -7 -25 -15 -7 -14 -17 -10 -62 21 -83 57 -121 111
-120 171 1 25 4 23 27 -22 33 -65 68 -102 110 -116 38 -12 55 -6 173 68 36 22
89 49 118 59 29 10 52 25 52 32 0 12 -24 45 -146 197 -13 17 -30 38 -37 48
-12 17 -18 18 -57 7 -61 -16 -146 -73 -204 -136 -56 -62 -80 -67 -120 -28 -30
31 -34 75 -11 131 17 41 21 197 5 238 -11 28 -5 49 11 40 5 -4 9 -15 9 -25z
m1359 -67 c0 -43 2 -98 3 -122 2 -30 -1 -46 -10 -49 -10 -3 -12 4 -7 31 6 30
3 38 -14 49 -18 11 -21 23 -21 77 0 49 4 67 18 77 9 7 20 14 24 14 4 0 7 -35
7 -77z m-4652 35 c-3 -8 -6 -5 -6 6 -1 11 2 17 5 13 3 -3 4 -12 1 -19z m397
-26 c2 -4 19 -9 36 -10 18 -1 39 -10 48 -18 14 -15 17 -14 33 8 20 25 22 23
19 -40 -1 -23 4 -58 10 -77 9 -29 9 -44 -4 -81 -16 -47 -88 -146 -156 -214
-23 -23 -44 -57 -53 -86 -8 -27 -27 -76 -41 -109 -14 -33 -26 -73 -26 -89 0
-16 -5 -59 -11 -94 l-12 -65 -15 28 c-13 25 -13 41 -2 113 7 46 20 116 30 155
10 40 17 73 15 75 -3 3 -184 -116 -279 -183 -48 -35 -76 -44 -76 -25 0 6 6 10
13 10 16 0 85 61 108 96 20 30 26 99 10 109 -6 3 -14 -3 -20 -12 -6 -10 -11
-13 -11 -6 0 6 5 15 10 18 16 10 11 25 -8 25 -11 0 -27 -9 -37 -20 -19 -21
-65 -28 -65 -10 0 6 5 10 10 10 6 0 18 12 28 28 9 15 22 27 27 27 6 0 21 8 34
17 19 14 22 20 13 31 -9 11 -7 18 9 32 11 11 27 35 36 54 9 20 25 45 35 56 10
11 31 39 48 63 23 32 37 42 59 42 34 0 91 19 91 30 0 4 -11 11 -25 14 -34 9
-32 19 12 52 65 50 96 63 107 46z m-1334 -70 c0 -3 -7 3 -15 14 -8 10 -14 26
-15 34 0 8 7 2 15 -14 8 -15 15 -31 15 -34z m10661 8 l24 -20 -30 2 c-19 2
-31 9 -33 21 -5 23 10 22 39 -3z m-10060 -137 c14 -61 32 -80 102 -108 49 -20
82 -53 41 -42 -11 3 -44 12 -75 21 -82 23 -105 50 -113 135 -3 38 -3 77 1 87
6 16 9 14 19 -11 7 -17 18 -54 25 -82z m10169 17 c0 -13 -11 -13 -30 0 -12 8
-11 10 8 10 12 0 22 -4 22 -10z m-7802 -63 c9 -10 45 -33 81 -50 48 -24 59
-33 42 -35 -28 -4 -88 15 -124 40 -39 28 -50 53 -35 81 12 21 12 21 16 2 2
-11 11 -28 20 -38z m-2078 -12 c0 -25 -4 -35 -16 -35 -11 0 -14 5 -9 18 4 9
10 25 12 35 8 27 13 20 13 -18z m-715 -85 c-4 -45 -7 -45 -15 0 -4 25 -5 49
-2 54 8 14 20 -25 17 -54z m9438 -11 c-4 -13 -12 -19 -26 -17 -29 4 -33 27 -5
37 29 11 37 6 31 -20z m5787 -56 c-1 -27 -7 -59 -15 -73 l-13 -25 -12 30 c-7
20 -8 36 -1 50 5 11 13 30 16 43 11 38 25 24 25 -25z m-10166 -75 c19 -67 32
-198 19 -198 -5 0 -15 27 -21 60 -15 73 -27 190 -19 190 3 0 12 -24 21 -52z
m9226 -147 c0 -14 -98 -101 -115 -101 -21 0 -19 17 3 24 10 4 36 24 57 46 38
39 55 49 55 31z m857 -13 c-3 -8 -6 -5 -6 6 -1 11 2 17 5 13 3 -3 4 -12 1 -19z
m-20 -40 c-3 -8 -6 -5 -6 6 -1 11 2 17 5 13 3 -3 4 -12 1 -19z m-1123 -49 c-3
-5 -10 -7 -15 -3 -6 3 -19 -3 -30 -15 -17 -18 -49 -29 -49 -17 0 3 19 16 42
30 39 23 65 26 52 5z m-1886 -31 c2 -12 -3 -18 -16 -18 -20 0 -72 -52 -72 -72
0 -5 17 -25 38 -44 28 -25 33 -34 19 -34 -23 0 -55 16 -84 42 -28 26 -18 57
35 111 39 40 74 46 80 15z m2935 -55 c-7 -2 -13 -11 -13 -19 0 -8 -4 -14 -8
-14 -4 0 -13 -12 -20 -27 -23 -51 -37 -73 -44 -73 -9 0 39 99 60 123 8 9 20
17 26 16 6 0 6 -3 -1 -6z m-15193 -177 c0 -28 -17 -8 -25 29 -6 29 -6 29 9 11
9 -11 16 -29 16 -40z m15077 -4 c-15 -16 -27 -33 -27 -38 0 -14 -45 -56 -52
-49 -3 4 7 20 23 38 16 17 29 37 29 44 0 13 41 45 49 38 2 -3 -8 -18 -22 -33z
m-3228 9 c10 -7 8 -11 -10 -16 -43 -14 -108 -64 -111 -88 -2 -12 1 -32 6 -45
12 -29 2 -38 -29 -24 -20 9 -25 19 -25 50 0 30 7 45 33 70 29 29 88 61 112 61
6 1 16 -3 24 -8z m-1259 -57 c0 -8 -19 -13 -24 -6 -3 5 1 9 9 9 8 0 15 -2 15
-3z m-6837 -18 c3 -8 23 -20 44 -27 21 -6 62 -31 92 -53 29 -23 63 -48 75 -56
11 -8 45 -36 75 -63 66 -59 82 -66 188 -82 64 -10 96 -22 152 -55 38 -23 75
-48 82 -56 6 -8 23 -14 38 -14 36 0 122 -84 96 -94 -11 -4 -28 3 -47 19 -39
33 -50 23 -15 -13 15 -16 27 -32 27 -36 0 -4 12 -23 26 -41 31 -41 40 -96 25
-150 -14 -51 -50 -77 -115 -83 -28 -2 -56 -9 -63 -14 -7 -6 -29 0 -61 16 -39
20 -56 23 -80 17 -32 -10 -162 16 -162 32 0 4 38 7 85 6 47 -1 89 1 92 5 7 7
-8 23 -121 137 -65 65 -126 83 -301 87 -82 2 -152 7 -155 11 -3 5 -18 13 -35
18 -23 8 17 11 161 11 175 1 193 -1 209 -18 9 -10 28 -21 42 -24 30 -8 101
-63 183 -143 81 -78 111 -93 187 -93 76 0 103 20 103 76 0 38 -43 129 -65 138
-7 2 -23 -6 -36 -20 -25 -27 -71 -32 -126 -12 -50 18 -40 30 20 23 42 -5 56
-3 66 9 27 32 -28 109 -89 126 -22 6 -79 29 -127 52 -84 40 -92 42 -171 40
-85 -3 -152 -23 -152 -45 0 -25 -100 -57 -178 -57 -39 0 -72 4 -72 10 0 24
-169 21 -231 -4 -8 -4 -30 3 -49 16 -59 40 -51 46 67 45 69 -1 133 5 178 15
39 9 111 27 160 38 50 12 106 24 125 27 19 3 41 10 47 15 7 6 29 7 48 4 61
-12 41 16 -67 95 -119 86 -197 139 -206 139 -4 0 -20 9 -37 20 l-30 20 46 0
c31 0 49 -5 52 -14z m6970 7 c-7 -2 -19 -2 -25 0 -7 3 -2 5 12 5 14 0 19 -2
13 -5z m897 -12 c0 -5 -17 -20 -37 -32 -21 -12 -53 -35 -71 -51 -58 -50 -72
-32 -19 25 46 51 127 87 127 58z m2070 -10 c0 -5 -7 -14 -15 -21 -12 -10 -15
-10 -15 2 0 8 3 18 7 21 9 10 23 9 23 -2z m-10423 -46 c19 -13 23 -24 23 -64
0 -31 5 -53 15 -61 15 -13 22 -90 8 -90 -27 1 -41 31 -48 95 -10 109 -8 105
-77 105 -42 0 -59 3 -56 12 10 30 92 31 135 3z m2783 11 c0 -2 -8 -10 -17 -17
-16 -13 -17 -12 -4 4 13 16 21 21 21 13z m-6100 -39 c0 -2 -10 -12 -22 -23
l-23 -19 19 23 c18 21 26 27 26 19z m14964 -10 c-10 -28 -140 -107 -173 -107
-9 1 7 10 34 22 28 12 52 26 55 30 6 7 82 67 87 68 1 0 0 -6 -3 -13z m-3998
-123 c-19 -19 -19 -17 -2 -59 17 -40 13 -42 -31 -15 -39 23 -42 48 -10 77 40
36 79 34 43 -3z m2739 -46 c-4 -82 -2 -96 30 -213 27 -100 29 -111 16 -99 -11
10 -14 19 -27 94 -4 19 -11 41 -16 47 -20 25 -23 253 -3 253 1 0 2 -37 0 -82z
m585 -82 c-22 -21 -63 -31 -58 -15 3 8 15 15 27 15 12 1 24 4 28 8 3 3 9 6 12
6 3 0 -1 -6 -9 -14z m-14730 -44 c0 -4 -16 -32 -35 -62 -65 -100 -108 -201
-109 -253 -1 -42 -3 -45 -14 -30 -32 42 7 149 101 280 53 74 57 79 57 65z
m14675 -12 c-10 -11 -20 -18 -23 -15 -7 6 18 35 31 35 5 0 2 -9 -8 -20z
m-10222 3 c-7 -2 -19 -2 -25 0 -7 3 -2 5 12 5 14 0 19 -2 13 -5z m1729 -15
c-7 -7 -12 -8 -12 -2 0 14 12 26 19 19 2 -3 -1 -11 -7 -17z m8453 -28 c-3 -5
-10 -10 -16 -10 -5 0 -9 5 -9 10 0 6 7 10 16 10 8 0 12 -4 9 -10z m-40 -42
c-4 -18 -11 -39 -15 -48 -5 -8 -16 -42 -26 -75 -23 -77 -34 -89 -34 -40 0 42
23 108 55 162 25 41 28 41 20 1z m-14365 -1 c-39 -34 -76 -88 -90 -130 -14
-44 -44 -66 -58 -41 -11 19 -62 27 -62 8 0 -12 26 -44 36 -44 3 0 3 10 -1 23
-5 19 -4 20 5 5 6 -10 17 -18 24 -18 16 0 29 -27 20 -41 -3 -5 -1 -9 4 -9 6 0
19 -15 29 -32 11 -18 56 -79 101 -135 61 -75 98 -112 142 -138 33 -20 60 -39
60 -42 0 -3 -30 -3 -67 -1 -38 3 -59 2 -49 -1 14 -5 16 -10 8 -15 -7 -4 -17
-4 -24 0 -6 4 -8 3 -4 -4 3 -5 0 -12 -6 -15 -24 -9 43 -27 98 -27 71 0 62 -15
-14 -24 -116 -13 -294 32 -373 95 -68 54 -145 190 -137 243 2 16 11 8 40 -40
20 -33 47 -69 60 -80 12 -10 18 -12 11 -4 -25 34 -50 87 -56 120 -8 41 5 96
22 93 6 -2 11 2 11 8 0 6 7 9 15 5 12 -4 10 4 -6 36 -17 33 -20 53 -16 96 3
29 11 59 17 67 17 20 79 16 102 -7 25 -25 61 -18 103 21 28 27 64 50 75 50 3
0 -6 -10 -20 -22z m11148 10 c6 0 12 -4 12 -9 0 -9 -2 -10 -67 -25 -45 -11
-51 -5 -37 32 5 13 14 15 43 10 20 -4 42 -8 49 -8z m-83 -77 c3 -5 -3 -10 -14
-10 -12 0 -21 5 -21 10 0 6 6 10 14 10 8 0 18 -4 21 -10z m185 -34 c0 -4 -115
-83 -155 -106 -16 -10 -59 -34 -93 -54 -83 -47 -98 -57 -282 -200 -87 -67
-142 -104 -125 -85 17 19 44 46 62 59 246 189 342 256 450 317 120 67 143 78
143 69z m2740 -36 c0 -10 6 -23 13 -27 48 -29 59 -252 21 -440 -9 -47 -23 -21
-21 40 1 34 1 97 -1 140 -3 121 -3 121 -243 136 -106 6 -230 16 -274 22 -127
17 -616 -4 -750 -32 -27 -5 -75 -14 -105 -20 -30 -5 -62 -12 -70 -16 -8 -4
-19 -7 -25 -8 -26 -3 -175 -51 -252 -82 -8 -3 -13 3 -13 13 0 12 12 24 33 33
17 8 70 31 115 53 46 21 94 38 105 38 18 0 19 -2 7 -10 -25 -16 -6 -20 37 -7
52 15 70 32 24 22 -21 -4 -31 -3 -28 2 7 11 100 45 167 61 46 11 160 25 128
16 -27 -8 -22 -24 7 -24 17 0 23 4 19 15 -10 24 18 28 211 29 156 1 182 -1
181 -14 -1 -8 -14 -18 -31 -21 -16 -4 40 -7 125 -7 86 0 168 -5 183 -11 16 -6
84 -11 152 -11 86 0 125 -4 127 -12 3 -7 32 -14 73 -16 l68 -5 -5 27 c-3 14
-2 26 2 26 4 0 5 28 3 61 -4 44 -2 60 6 55 6 -4 11 -16 11 -26z m-10570 -12
c0 -21 -61 -51 -74 -37 -8 8 -8 13 0 16 6 2 20 10 30 18 24 18 44 19 44 3z
m798 -34 c18 -3 35 -10 38 -15 7 -12 -3 -11 -46 1 -26 8 -57 6 -122 -7 -49 -9
-88 -20 -88 -24 0 -4 23 -15 50 -24 61 -20 148 -14 225 17 28 11 60 24 72 29
25 9 85 1 78 -11 -3 -4 -26 -13 -52 -20 -48 -13 -48 -13 -20 -24 17 -6 26 -16
25 -26 -3 -13 -21 -15 -114 -12 -90 2 -114 -1 -124 -13 -10 -13 -8 -19 14 -36
14 -11 52 -55 83 -97 31 -42 69 -90 85 -106 35 -35 36 -52 3 -30 -14 9 -25 23
-25 30 0 8 -5 14 -10 14 -6 0 -23 20 -38 44 -30 47 -70 93 -119 139 l-31 29
-90 -31 c-111 -38 -139 -40 -52 -3 102 43 88 55 -63 56 -115 1 -132 -1 -154
-19 -13 -11 -62 -37 -109 -57 -83 -36 -86 -36 -103 -19 -11 11 -36 22 -58 25
-98 17 -59 46 87 66 119 16 181 30 174 41 -3 5 -24 9 -46 9 -61 0 -44 7 62 25
52 9 122 25 155 37 99 34 187 38 313 12z m9229 -17 c3 -4 -26 -7 -66 -7 -48 0
-70 4 -66 11 7 11 120 7 132 -4z m-9917 -1 c0 -3 -25 -16 -55 -30 -58 -26 -66
-39 -37 -55 24 -14 5 -30 -38 -31 -38 -1 -100 9 -100 17 0 2 12 20 27 40 23
30 32 34 57 30 17 -2 54 4 81 14 54 19 65 21 65 15z m10238 -3 c-10 -2 -26 -2
-35 0 -10 3 -2 5 17 5 19 0 27 -2 18 -5z m132 -13 c-20 -13 -100 -13 -100 0 0
6 26 10 58 10 40 0 53 -3 42 -10z m480 -81 c19 -5 49 -9 67 -9 17 0 35 -4 38
-10 3 -5 17 -10 30 -10 12 0 25 -6 28 -14 3 -7 16 -16 29 -19 13 -3 41 -10 63
-16 22 -6 55 -13 73 -16 18 -3 50 -14 70 -24 20 -11 59 -31 87 -44 53 -27 76
-55 34 -41 -13 4 -80 8 -149 9 -123 2 -127 3 -270 53 -80 28 -152 52 -160 52
-34 1 -42 16 -35 64 8 51 2 49 95 25z m2636 -26 c5 -19 2 -30 -11 -40 -11 -7
-14 -13 -8 -13 14 0 6 -144 -10 -180 -15 -33 -58 -80 -73 -80 -15 0 -74 -69
-74 -87 0 -7 -6 -13 -14 -13 -7 0 -35 -12 -62 -26 -166 -88 -199 -101 -279
-117 -39 -8 -77 -16 -85 -18 -9 -2 -14 2 -12 10 4 19 -27 51 -51 51 -10 0 -33
-6 -50 -14 -40 -17 -181 -44 -267 -50 -85 -6 -162 10 -158 32 4 29 -12 42 -51
42 -41 0 -82 11 -146 40 -151 69 -186 84 -232 102 -29 10 -53 24 -53 29 0 12
17 11 25 -2 4 -6 13 -8 20 -5 12 4 45 -4 100 -25 11 -4 67 -15 125 -24 58 -9
125 -21 150 -26 25 -6 128 -21 230 -34 102 -13 212 -29 245 -35 33 -7 91 -18
129 -26 37 -8 71 -12 76 -9 4 2 10 27 14 55 7 53 24 70 68 70 13 0 39 11 58
25 39 29 91 46 118 38 10 -2 34 4 52 14 31 18 35 25 53 109 12 57 26 96 39
108 11 10 18 26 15 36 -3 11 0 17 7 14 6 -2 24 18 41 45 25 40 33 47 47 40 10
-5 21 -21 24 -36z m-12277 -42 c10 -7 1 -11 -33 -16 -53 -8 -71 0 -35 14 31
12 50 13 68 2z m-201 -89 c2 -7 -16 -21 -45 -33 -26 -11 -56 -24 -65 -29 -19
-11 -36 6 -21 21 17 17 98 57 112 55 8 0 16 -7 19 -14z m7702 13 c0 -3 -21
-15 -46 -26 -34 -16 -48 -19 -57 -10 -8 8 -5 11 14 11 13 1 38 7 54 15 37 17
35 16 35 10z m-8845 -65 c-3 -5 -12 -10 -18 -10 -7 0 -6 4 3 10 19 12 23 12
15 0z m1819 -9 c37 -23 247 -53 403 -57 111 -3 161 -17 110 -30 -49 -12 -277
4 -381 26 -121 26 -183 29 -217 10 -123 -70 -225 -112 -282 -118 l-61 -5 56
50 c36 33 74 57 109 68 30 10 72 27 94 38 82 41 124 46 169 18z m9081 -146 c3
-27 7 -63 10 -80 3 -16 7 -54 9 -83 1 -29 6 -55 9 -59 14 -14 7 -63 -9 -63
-11 0 -15 9 -13 33 1 17 -1 39 -4 47 -16 45 -27 146 -26 244 1 97 2 105 10 61
5 -27 11 -72 14 -100z m-11035 80 c-8 -8 -51 -35 -95 -60 -44 -25 -72 -45 -62
-45 26 0 21 -14 -11 -27 -50 -22 -175 -63 -191 -62 -14 0 -14 1 -1 6 29 9 65
28 72 37 3 5 5 18 3 28 -3 13 5 22 23 30 15 6 54 23 87 38 143 64 202 83 175
55z m2565 -115 c3 -6 -1 -7 -9 -4 -18 7 -21 14 -7 14 6 0 13 -4 16 -10z m6018
-19 c44 -17 42 -71 -4 -126 -9 -11 -19 -38 -23 -60 -6 -37 -5 -38 8 -21 14 17
48 17 44 -1 -1 -4 2 -25 6 -45 5 -25 12 -35 20 -31 6 4 16 8 21 9 6 0 16 2 23
2 6 1 12 6 12 12 0 5 -8 7 -17 3 -14 -5 -16 -3 -6 7 15 17 44 5 37 -15 -4 -8
-17 -18 -31 -21 -13 -4 -22 -9 -19 -11 7 -7 -40 -49 -83 -75 -50 -31 -60 -47
-61 -94 0 -82 12 -136 32 -142 17 -4 18 -6 3 -23 -16 -16 -15 -20 3 -46 23
-32 41 -183 22 -183 -5 0 -10 7 -10 15 0 8 -6 15 -12 15 -7 1 -26 17 -41 38
l-29 37 8 -30 c6 -29 6 -29 -23 10 -16 22 -42 63 -57 90 -30 53 -54 85 -66 85
-20 0 -33 -71 -35 -202 -2 -79 -6 -156 -11 -172 -6 -24 -4 -28 8 -23 22 8 38
-12 38 -50 0 -32 -1 -32 -27 -20 -37 15 -43 26 -36 59 3 17 1 28 -6 28 -6 0
-11 12 -11 26 0 14 -5 34 -11 46 -6 11 -10 65 -10 121 0 56 -5 117 -11 135
-11 30 -14 32 -48 26 -31 -6 -33 -5 -22 8 7 9 21 14 32 11 11 -3 27 2 35 11 9
9 23 16 30 16 8 0 21 10 29 22 16 22 16 22 31 3 8 -11 15 -24 15 -29 0 -6 5
-5 11 1 9 9 8 18 -5 38 -9 14 -16 31 -15 38 3 19 -13 50 -36 69 -11 10 -17 17
-13 18 4 0 1 18 -7 40 -18 51 -10 93 27 148 26 38 29 48 23 95 -6 50 -5 54 20
65 14 7 32 12 40 12 17 0 20 -16 5 -25 -15 -9 -12 -25 5 -25 8 0 21 13 30 30
10 19 37 41 73 59 66 35 63 34 95 22z m-6963 -23 c52 -5 158 -22 235 -39 328
-69 344 -70 407 -38 22 11 49 18 60 16 11 -3 30 5 47 19 32 27 56 32 47 9 -10
-27 33 -17 64 15 18 18 35 27 45 24 8 -4 22 -1 30 6 15 12 35 6 35 -11 0 -5
-7 -9 -16 -9 -9 0 -27 -9 -41 -20 -14 -11 -36 -20 -49 -20 -12 0 -24 -3 -26
-8 -8 -18 -228 -136 -393 -212 -49 -22 -101 -47 -115 -55 -14 -9 -50 -27 -80
-41 -30 -14 -64 -30 -75 -37 -11 -6 -36 -18 -55 -28 -137 -65 -188 -89 -194
-89 -3 0 -41 -17 -84 -38 -42 -21 -104 -49 -136 -62 -33 -13 -79 -39 -103 -57
-24 -18 -50 -33 -58 -33 -8 0 -15 -4 -15 -10 0 -5 -12 -12 -27 -16 -16 -3 -52
-19 -80 -35 -29 -16 -64 -29 -77 -29 -14 0 -28 -5 -31 -11 -12 -18 -189 -89
-224 -89 -16 0 236 143 419 238 145 74 178 94 240 140 25 19 57 43 71 54 33
24 102 63 149 84 19 9 97 45 173 80 76 35 141 64 144 64 12 0 211 99 216 107
10 15 -131 33 -373 48 -124 8 -241 19 -260 24 -19 6 -51 11 -70 11 l-35 1 30
16 c17 9 41 24 54 35 15 11 31 16 40 12 9 -4 59 -11 111 -16z m866 3 c-3 -5
-18 -11 -33 -14 -26 -5 -26 -4 -8 9 21 15 49 19 41 5z m-2946 -41 c0 -5 -15
-10 -32 -9 -28 0 -30 2 -13 9 28 12 45 12 45 0z m79 -13 c-13 -11 -101 -47
-113 -47 -8 0 -18 -4 -21 -10 -3 -5 -12 -10 -18 -10 -7 0 -1 9 13 19 13 11 27
18 30 16 4 -2 29 7 56 20 27 13 51 22 53 19 2 -2 2 -5 0 -7z m3006 3 c3 -5
-16 -19 -44 -30 -38 -17 -48 -25 -44 -40 6 -21 -3 -24 -91 -35 -27 -4 -55 -9
-62 -12 -8 -3 -14 -1 -14 5 0 5 26 20 58 33 31 13 86 38 122 56 76 38 67 35
75 23z m4725 -31 c-7 -11 -14 -18 -17 -15 -3 3 0 12 7 21 18 21 23 19 10 -6z
m2527 15 c-3 -3 -12 -4 -19 -1 -8 3 -5 6 6 6 11 1 17 -2 13 -5z m-8712 -23
c-3 -6 -11 -11 -17 -11 -6 0 -6 6 2 15 14 17 26 13 15 -4z m-1725 -36 c-7 -8
-18 -15 -24 -15 -6 0 -2 7 8 15 25 19 32 19 16 0z m10408 -33 c67 -44 105 -62
134 -62 11 0 33 -11 50 -25 35 -30 58 -32 58 -6 0 14 6 17 26 13 16 -3 43 5
72 21 26 13 58 28 72 32 13 4 37 17 52 28 23 17 32 19 53 9 52 -24 21 -122
-67 -209 -23 -24 -41 -33 -64 -33 -27 0 -34 -5 -43 -31 -12 -34 -12 -34 -103
-13 -22 5 -34 0 -60 -27 l-33 -32 -57 15 c-62 16 -74 13 -79 -17 -3 -11 -17
-23 -34 -29 -43 -13 -48 -15 -65 -25 -8 -6 -28 -13 -43 -16 -20 -4 -27 -10
-23 -20 6 -18 -7 -19 -35 -4 -25 13 -77 -17 -114 -65 -33 -43 -32 -50 11 -77
31 -19 34 -23 21 -36 -16 -16 -135 -25 -152 -12 -20 15 -71 -18 -89 -57 -9
-22 -24 -51 -32 -66 -8 -16 -11 -28 -6 -28 9 0 35 -55 48 -100 9 -32 63 -115
109 -164 19 -21 33 -42 30 -45 -4 -3 -9 0 -13 6 -4 6 -16 12 -27 14 -48 10
-196 229 -224 335 -6 22 -20 49 -31 59 -19 17 -21 17 -39 1 -13 -12 -21 -14
-26 -6 -10 16 6 120 19 120 6 0 6 4 -3 9 -8 5 -11 16 -6 30 5 16 -2 29 -25 53
-28 28 -31 37 -27 71 8 59 30 75 107 79 l65 3 0 -50 c0 -38 4 -50 15 -50 19 0
25 41 9 61 -10 12 -8 17 7 29 18 14 18 16 2 29 -19 14 -24 36 -8 36 11 0 76
92 72 103 -6 20 66 -7 91 -35 l28 -30 52 41 c72 56 91 79 77 96 -15 18 -1 45
42 77 43 32 54 36 106 37 34 1 55 -7 100 -37z m-10487 -3 c-24 -11 -46 -17
-49 -14 -6 6 58 34 78 34 8 0 -5 -9 -29 -20z m13209 11 c11 -7 6 -10 -20 -10
-26 0 -31 3 -20 10 8 5 17 10 20 10 3 0 12 -5 20 -10z m-6603 -63 c-8 -18 -18
-47 -22 -64 -4 -18 -11 -33 -16 -33 -5 0 -9 -6 -9 -14 0 -8 -16 -33 -35 -56
-19 -23 -35 -51 -35 -61 0 -11 16 -34 35 -51 38 -32 60 -66 51 -75 -3 -3 -29
9 -57 28 -28 18 -88 48 -133 66 -102 41 -112 60 -28 53 27 -2 77 49 124 128
73 121 174 185 125 79z m3313 54 c0 -10 -30 -24 -37 -17 -3 3 -2 9 2 15 8 13
35 15 35 2z m-6930 -26 c-15 -18 -227 -125 -247 -125 -7 0 -13 4 -13 9 0 11
160 91 181 91 8 0 25 9 39 20 31 25 59 28 40 5z m5820 5 c0 -5 -4 -10 -9 -10
-5 0 -18 -3 -28 -6 -16 -5 -16 -4 1 10 23 18 36 20 36 6z m2543 -2 c3 -8 -4
-13 -18 -13 -18 0 -21 3 -13 13 6 6 14 12 18 12 4 0 10 -6 13 -12z m2799 -177
c-18 -25 -51 -44 -38 -22 4 7 9 26 11 44 4 35 6 46 27 122 l13 50 3 -85 c2
-69 0 -88 -16 -109z m-14295 142 c-13 -12 -87 -42 -87 -35 0 5 19 15 43 24 49
19 52 20 44 11z m11863 -43 c0 -11 -7 -20 -15 -20 -15 0 -21 21 -8 33 12 13
23 7 23 -13z m-11970 0 c-8 -5 -19 -10 -25 -10 -5 0 -3 5 5 10 8 5 20 10 25
10 6 0 3 -5 -5 -10z m3335 -65 c-24 -15 -33 -25 -22 -25 9 0 17 -4 17 -9 0 -4
-12 -7 -27 -5 -16 2 -20 1 -10 -2 9 -3 17 -10 17 -15 0 -6 -4 -8 -9 -5 -5 3
-15 -2 -22 -11 -12 -15 -12 -16 5 -9 20 7 20 7 0 -15 -10 -11 -32 -28 -47 -36
-19 -9 -27 -20 -23 -29 3 -9 1 -12 -4 -9 -6 3 -10 -2 -10 -12 0 -23 -68 -108
-98 -122 -13 -7 -30 -8 -38 -3 -12 7 -7 20 30 69 94 124 237 264 270 263 6 0
-7 -12 -29 -25z m8632 -27 c-3 -7 -5 -2 -5 12 0 14 2 19 5 13 2 -7 2 -19 0
-25z m-3917 -8 c0 -5 -5 -10 -11 -10 -5 0 -7 5 -4 10 3 6 8 10 11 10 2 0 4 -4
4 -10z m-26 -32 c-42 -69 -126 -190 -144 -208 -9 -9 -85 -114 -103 -142 -16
-26 -16 -27 0 -21 16 6 16 4 -1 -22 -79 -120 -80 -122 -63 -156 15 -31 13 -59
-3 -59 -4 0 -13 -13 -20 -29 -6 -16 -23 -38 -36 -50 -25 -22 -42 -19 -65 12
-5 7 -9 4 -76 -68 -21 -22 -41 -39 -44 -38 -4 1 -33 -28 -65 -64 -33 -37 -83
-92 -113 -123 -46 -47 -49 -49 -17 -10 20 25 56 71 79 102 23 32 47 58 53 58
6 0 11 6 11 13 0 7 42 68 94 136 52 67 101 133 109 145 8 12 76 100 151 196
74 96 162 212 194 258 32 45 60 82 62 82 2 0 1 -6 -3 -12z m686 -16 c0 -17
-28 -45 -38 -38 -9 5 -8 12 1 26 12 20 37 28 37 12z m386 -21 c-4 -6 -14 -11
-22 -11 -12 0 -13 4 -3 21 7 14 14 18 21 11 6 -6 7 -15 4 -21z m-787 -84 c87
-58 218 -214 196 -235 -3 -3 -5 0 -5 7 0 7 -4 9 -10 6 -12 -7 -13 -57 -2 -70
4 -6 -27 25 -70 67 -84 83 -196 168 -222 168 -23 0 -20 9 21 70 31 47 37 51
43 34 5 -11 26 -32 49 -47z m591 39 c0 -2 -7 -6 -15 -10 -8 -3 -15 -1 -15 4 0
6 7 10 15 10 8 0 15 -2 15 -4z m-266 -53 c-8 -44 -45 -89 -80 -96 -30 -5 -48
20 -30 45 17 23 96 88 107 88 6 0 7 -16 3 -37z m-124 -43 c0 -23 -64 -38 -76
-18 -10 16 23 36 51 30 14 -2 25 -8 25 -12z m375 0 c-3 -5 -11 -10 -16 -10 -6
0 -7 5 -4 10 3 6 11 10 16 10 6 0 7 -4 4 -10z m45 0 c0 -5 -2 -10 -4 -10 -3 0
-8 5 -11 10 -3 6 -1 10 4 10 6 0 11 -4 11 -10z m1978 -6 c26 -18 31 -71 7 -80
-24 -10 -70 14 -88 46 -17 27 -16 29 0 39 26 15 55 13 81 -5z m-1991 -30 c-3
-3 -12 -4 -19 -1 -8 3 -5 6 6 6 11 1 17 -2 13 -5z m5363 -39 c0 -8 -7 -15 -15
-15 -26 0 -18 20 13 29 1 1 2 -6 2 -14z m-3070 -15 c0 -5 -2 -10 -4 -10 -3 0
-8 5 -11 10 -3 6 -1 10 4 10 6 0 11 -4 11 -10z m3040 -31 c0 -11 -4 -17 -10
-14 -6 4 -10 -7 -10 -24 0 -17 4 -31 10 -31 5 0 2 -15 -6 -34 -12 -25 -21 -32
-35 -29 -22 6 -22 4 -8 63 16 72 59 122 59 69z m-3600 -53 c0 -14 -56 -40 -70
-31 -17 11 -11 24 17 39 29 15 53 11 53 -8z m-5445 -245 c-13 -11 -100 -22
-89 -11 9 8 41 16 79 19 11 0 15 -3 10 -8z m-195 -75 c0 -2 -9 -6 -20 -9 -11
-3 -18 -1 -14 4 5 9 34 13 34 5z m4210 -31 c10 -45 62 -138 96 -170 23 -22 74
-93 74 -104 0 -7 8 -15 18 -19 25 -10 86 -81 78 -90 -4 -4 -12 1 -17 11 -6 9
-18 17 -28 17 -19 0 -72 52 -91 90 -7 14 -25 41 -40 60 -15 19 -47 73 -71 120
-24 47 -47 87 -51 88 -5 2 -8 10 -8 19 0 27 34 9 40 -22z m-653 -17 c-3 -7 -5
-2 -5 12 0 14 2 19 5 13 2 -7 2 -19 0 -25z m-3338 -31 c-10 -23 -39 -45 -39
-31 0 10 42 65 46 61 3 -2 -1 -16 -7 -30z m5639 -12 c7 -14 12 -35 12 -46 0
-11 11 -24 25 -31 14 -6 25 -17 25 -24 0 -6 13 -17 30 -22 16 -6 35 -22 42
-36 6 -15 20 -26 31 -26 18 0 18 -2 -4 -25 -15 -15 -35 -25 -54 -25 -43 0 -51
-10 -51 -57 1 -41 -13 -69 -21 -45 -3 6 -11 12 -19 12 -13 0 -16 4 -18 33 -1
6 -10 14 -20 17 -11 3 -21 15 -22 27 -2 12 -11 41 -20 65 -33 92 -35 112 -12
129 12 9 18 21 14 28 -4 7 3 20 16 31 30 25 33 25 46 -5z m-6267 -84 c-18 -33
-14 -33 50 0 34 16 63 28 65 26 3 -2 -11 -12 -31 -21 -19 -9 -35 -20 -35 -25
0 -4 -15 -24 -34 -44 -32 -36 -33 -36 -43 -15 -7 16 -4 34 11 71 11 26 22 44
24 38 2 -5 -1 -19 -7 -30z m3064 -51 c-3 -5 -13 -10 -21 -10 -8 0 -12 5 -9 10
3 6 13 10 21 10 8 0 12 -4 9 -10z m-3682 -95 c-69 -61 -93 -101 -94 -161 -1
-47 -16 -115 -18 -84 -1 12 -3 12 -10 2 -12 -20 -19 -19 -35 3 -12 18 -12 29
1 80 16 64 27 77 137 161 75 57 85 56 19 -1z m3166 -147 c-34 -46 -79 -97
-100 -115 -20 -18 -42 -46 -49 -63 -12 -30 -66 -68 -78 -55 -3 3 9 20 28 38
19 18 53 55 75 82 58 71 179 203 184 199 2 -2 -25 -41 -60 -86z m4131 -17 c59
-57 100 -141 70 -141 -5 0 -10 11 -10 25 0 23 -2 24 -27 12 -21 -9 -27 -9 -31
1 -2 6 -11 12 -19 12 -12 0 -14 7 -9 30 5 28 4 30 -14 20 -16 -8 -20 -8 -20 4
0 8 5 18 11 21 7 5 5 13 -6 25 -15 16 -14 40 1 40 3 0 27 -22 54 -49z m396
-78 c-7 -7 -26 7 -26 19 0 6 6 6 15 -2 9 -7 13 -15 11 -17z m-175 -36 c-10 -9
-11 -8 -5 6 3 10 9 15 12 12 3 -3 0 -11 -7 -18z m-6803 -49 c6 -21 9 -38 6
-38 -5 0 -34 70 -34 83 0 21 18 -8 28 -45z m6866 -14 c9 -24 7 -28 -9 -14 -17
14 -20 30 -6 30 5 0 12 -7 15 -16z m-94 -4 c0 -5 -2 -10 -4 -10 -3 0 -8 5 -11
10 -3 6 -1 10 4 10 6 0 11 -4 11 -10z m-245 -32 c13 -28 29 -33 49 -13 14 14
18 14 40 0 30 -20 45 -51 19 -40 -10 4 -37 7 -60 6 -23 -1 -58 5 -79 14 -36
15 -36 16 -19 35 23 26 38 25 50 -2z m420 2 c-3 -5 -10 -10 -16 -10 -5 0 -9 5
-9 10 0 6 7 10 16 10 8 0 12 -4 9 -10z m-5 -46 c0 -18 -26 -18 -33 0 -3 8 -3
16 0 19 9 10 33 -5 33 -19z m-4792 -52 c-20 -20 -39 -47 -43 -59 -8 -27 -25
-31 -25 -6 0 18 90 116 99 108 2 -3 -11 -22 -31 -43z m4990 15 c2 -10 -3 -17
-11 -17 -16 0 -30 24 -19 34 10 10 27 1 30 -17z m-88 -28 c0 -4 3 -14 6 -22 4
-11 -1 -13 -20 -10 -14 3 -26 9 -26 14 0 5 -7 9 -15 9 -32 0 -13 15 20 16 19
0 35 -3 35 -7z m-479 -69 c30 -16 22 -26 -16 -22 -29 3 -33 7 -24 18 14 17 15
17 40 4z m548 -50 c12 -6 21 -17 21 -24 0 -8 7 -16 15 -20 8 -3 15 -10 15 -15
0 -6 -6 -8 -14 -5 -8 3 -17 1 -21 -5 -8 -14 -75 -14 -75 -1 0 6 7 13 15 16 8
4 15 13 15 21 0 12 -3 13 -13 5 -7 -6 -44 -12 -81 -14 l-68 -3 -13 38 c-14 40
-10 43 30 25 21 -9 31 -9 46 0 10 7 29 12 41 12 13 0 30 5 38 10 11 7 17 4 22
-10 4 -10 16 -24 27 -30z m-440 26 l24 -13 -28 -7 c-32 -8 -65 12 -43 25 17
11 18 11 47 -5z m-12329 -15 c0 -5 -12 -16 -26 -26 -15 -10 -23 -22 -20 -31 3
-9 -2 -17 -12 -20 -9 -3 -35 -14 -57 -24 -78 -34 -96 -40 -133 -40 -20 0 -67
-12 -104 -27 -38 -14 -71 -24 -74 -20 -11 11 7 27 30 27 13 0 37 7 52 15 16 8
36 15 44 15 20 0 70 47 70 65 0 8 26 21 63 33 136 43 167 49 167 33z m13790
-147 c0 -13 -4 -24 -9 -24 -11 0 -22 40 -15 52 9 15 24 -2 24 -28z m1960 19
c0 -10 -5 -25 -11 -33 -9 -12 -10 -11 -6 8 4 18 1 22 -19 22 -13 0 -24 5 -24
10 0 6 14 10 30 10 22 0 30 -5 30 -17z m120 -17 c0 -19 -4 -38 -10 -41 -6 -4
-10 10 -10 34 0 23 5 41 10 41 6 0 10 -15 10 -34z m50 15 c0 -11 -4 -23 -10
-26 -6 -4 -10 5 -10 19 0 14 5 26 10 26 6 0 10 -9 10 -19z m-2030 -10 c0 -8
-6 -11 -16 -7 -8 3 -23 -1 -31 -10 -18 -18 -37 -5 -28 19 8 20 75 19 75 -2z
m90 9 c0 -5 -9 -14 -20 -20 -15 -8 -20 -8 -20 3 0 8 3 17 7 20 10 10 33 8 33
-3z m1820 -20 c0 -16 -4 -30 -10 -30 -5 0 -10 14 -10 30 0 17 5 30 10 30 6 0
10 -13 10 -30z m290 26 c0 -3 -4 -8 -10 -11 -5 -3 -10 -1 -10 4 0 6 5 11 10
11 6 0 10 -2 10 -4z m-2892 -11 c-7 -7 -97 -9 -105 -2 -3 4 20 7 52 7 32 0 56
-2 53 -5z m83 -6 c-16 -6 -28 -6 -35 1 -7 7 1 10 25 9 32 0 33 -1 10 -10z
m154 2 c-18 -7 -55 -4 -55 5 0 2 17 4 38 3 28 0 32 -2 17 -8z m123 2 c-10 -2
-28 -2 -40 0 -13 2 -5 4 17 4 22 1 32 -1 23 -4z m-615 -10 c-7 -2 -19 -2 -25
0 -7 3 -2 5 12 5 14 0 19 -2 13 -5z m121 -8 c-4 -8 -9 -15 -13 -15 -4 0 -8 7
-8 15 0 8 6 15 13 15 8 0 11 -6 8 -15z m1416 -65 c19 0 30 6 33 18 4 16 5 16
6 -1 1 -18 -4 -21 -51 -31 -26 -6 -28 -4 -27 21 1 17 3 21 6 11 3 -12 14 -18
33 -18z m404 15 c-4 -8 -1 -15 5 -15 14 0 15 -47 1 -55 -6 -4 -10 7 -10 24 0
26 -4 31 -25 31 -21 0 -25 -5 -25 -30 0 -16 -5 -30 -11 -30 -6 0 -9 12 -7 27
2 20 13 33 38 45 19 9 36 17 37 18 1 0 0 -7 -3 -15z m96 -36 c0 -21 -4 -39
-10 -39 -5 0 -10 13 -10 29 0 16 -3 37 -6 45 -5 12 -2 15 10 10 11 -4 16 -18
16 -45z m-265 31 c-3 -5 -12 -10 -18 -10 -7 0 -6 4 3 10 19 12 23 12 15 0z
m382 -37 c-3 -10 -5 -2 -5 17 0 19 2 27 5 18 2 -10 2 -26 0 -35z m163 35 c0
-5 -9 -8 -19 -8 -12 0 -21 -8 -24 -22 -3 -17 -5 -15 -6 8 -1 28 2 32 24 30 14
0 25 -4 25 -8z m-861 -45 c0 -27 -3 -42 -6 -35 -7 18 -53 15 -53 -3 0 -8 -5
-15 -11 -15 -7 0 -8 12 -4 33 8 37 25 60 25 34 0 -10 8 -17 19 -17 14 0 17 6
13 25 -2 15 0 25 7 25 7 0 11 -19 10 -47z m753 39 c-7 -5 -10 -17 -6 -28 5
-16 4 -16 -5 -4 -16 22 -13 40 7 40 12 0 14 -2 4 -8z m-1008 -11 c3 -4 -1 -17
-9 -27 -14 -18 -14 -18 -15 9 0 26 13 36 24 18z m1176 -17 c0 -8 -5 -12 -10
-9 -6 4 -8 11 -5 16 9 14 15 11 15 -7z m-600 -25 c0 -6 -4 -7 -10 -4 -5 3 -10
11 -10 16 0 6 5 7 10 4 6 -3 10 -11 10 -16z m-660 7 c0 -2 -3 -11 -6 -20 -9
-23 -24 -20 -24 4 0 11 7 20 15 20 8 0 15 -2 15 -4z m-1605 -16 c14 -5 53 -11
86 -12 32 -2 59 -6 59 -10 0 -5 20 -8 44 -8 25 0 48 -4 51 -10 3 -6 25 -10 48
-11 l42 -1 -36 -9 c-42 -9 -140 5 -289 44 -63 17 -84 25 -63 26 17 1 43 -3 58
-9z m1553 -17 c4 -27 -16 -31 -25 -5 -4 9 -11 21 -17 25 -6 4 0 7 14 5 17 -2
26 -10 28 -25z m-68 -3 c0 -11 -7 -20 -15 -20 -17 0 -18 2 -9 24 9 23 24 20
24 -4z m300 -4 c0 -3 -4 -8 -10 -11 -5 -3 -10 -1 -10 4 0 6 5 11 10 11 6 0 10
-2 10 -4z"/>
<path d="M6342 9027 c-7 -8 -10 -16 -7 -19 10 -10 56 4 52 16 -6 17 -32 19
-45 3z"/>
<path d="M7689 8353 c-13 -16 -12 -17 4 -4 9 7 17 15 17 17 0 8 -8 3 -21 -13z"/>
<path d="M9451 9326 c-8 -9 -11 -19 -7 -23 9 -9 29 13 24 27 -2 8 -8 7 -17 -4z"/>
<path d="M3820 7983 c0 -12 5 -25 10 -28 6 -3 10 -17 10 -29 0 -28 24 -51 45
-43 11 5 12 12 4 37 -6 16 -15 28 -20 24 -5 -3 -18 10 -29 28 -17 28 -20 30
-20 11z"/>
<path d="M16250 7569 c0 -5 5 -7 10 -4 6 3 10 8 10 11 0 2 -4 4 -10 4 -5 0
-10 -5 -10 -11z"/>
<path d="M4120 6433 c0 -15 31 -46 38 -38 3 3 -4 15 -16 28 -12 12 -22 16 -22
10z"/>
<path d="M15270 5880 c0 -13 5 -20 13 -17 6 2 12 10 12 17 0 7 -6 15 -12 18
-8 2 -13 -5 -13 -18z"/>
<path d="M15237 5824 c-4 -4 -7 -14 -7 -23 0 -11 3 -12 11 -4 6 6 10 16 7 23
-2 6 -7 8 -11 4z"/>
<path d="M6253 4290 c-35 -14 -51 -48 -67 -144 -9 -49 -22 -96 -31 -106 -18
-20 -19 -30 -3 -30 6 0 19 -7 28 -15 9 -8 38 -16 66 -17 l49 -3 5 35 c4 27 12
39 39 52 31 15 37 15 63 2 16 -8 34 -27 40 -42 16 -37 16 -36 33 -22 23 19 21
153 -3 177 -11 10 -22 26 -25 35 -3 9 -17 24 -32 34 -22 14 -31 15 -70 4 -52
-15 -66 -8 -42 18 10 10 17 22 17 25 0 10 -40 8 -67 -3z"/>
<path d="M6500 3873 c-8 -16 -20 -35 -28 -45 -10 -13 -11 -18 -1 -24 15 -9 69
52 69 78 0 27 -25 21 -40 -9z"/>
<path d="M5435 3520 c3 -5 10 -10 16 -10 5 0 9 5 9 10 0 6 -7 10 -16 10 -8 0
-12 -4 -9 -10z"/>
<path d="M5945 3281 c-6 -11 9 -23 19 -14 9 9 7 23 -3 23 -6 0 -12 -4 -16 -9z"/>
<path d="M12805 5040 c-27 -7 -28 -8 -5 -8 14 0 34 3 45 8 25 11 2 11 -40 0z"/>
<path d="M12688 5013 c-16 -2 -28 -9 -28 -14 0 -12 8 -11 55 6 39 14 29 16
-27 8z"/>
<path d="M12823 4949 c14 -8 22 -8 30 0 8 8 3 11 -18 11 -26 -1 -28 -2 -12
-11z"/>
<path d="M12340 4910 c0 -7 14 -8 38 -4 51 9 53 14 4 14 -23 0 -42 -5 -42 -10z"/>
<path d="M11633 4830 c-3 -10 -16 -26 -29 -35 -35 -23 -30 -37 24 -65 26 -14
63 -39 82 -56 19 -17 56 -44 81 -61 l47 -31 30 31 c35 35 66 32 57 -5 -3 -13
-6 -50 -8 -82 l-2 -60 40 -9 c41 -9 150 -5 160 5 6 6 -9 106 -23 158 -9 30
-86 90 -169 132 -35 17 -63 35 -63 39 0 5 -23 9 -50 9 -37 0 -61 7 -90 25 -48
30 -80 32 -87 5z"/>
<path d="M12074 4340 c-28 -10 -74 -21 -102 -25 -68 -9 -79 -23 -59 -78 10
-28 14 -65 11 -111 -2 -38 0 -74 5 -80 4 -6 11 -26 15 -43 3 -18 9 -47 12 -64
l7 -31 66 4 c36 3 88 14 114 26 43 19 47 24 47 54 0 19 -5 39 -10 44 -8 8 -7
19 1 37 10 21 10 33 0 55 -7 15 -15 54 -17 87 -7 86 -18 138 -29 141 -6 1 -33
-6 -61 -16z"/>
<path d="M12390 4176 c-59 -16 -65 -41 -13 -55 52 -15 120 -13 243 5 58 9 130
19 160 23 45 6 33 8 -65 9 -82 0 -134 5 -164 16 -50 18 -97 19 -161 2z"/>
<path d="M12260 4136 c-19 -7 -35 -19 -35 -27 0 -9 13 -15 35 -17 41 -3 57 6
62 33 4 24 -16 28 -62 11z"/>
<path d="M1883 4273 c-23 -2 -46 -9 -51 -16 -12 -15 -26 -97 -17 -97 10 0 125
102 125 111 0 5 -3 8 -7 7 -5 -1 -27 -3 -50 -5z"/>
<path d="M410 2960 c0 -6 7 -10 15 -10 8 0 15 2 15 4 0 2 -7 6 -15 10 -8 3
-15 1 -15 -4z"/>
<path d="M13310 2941 c-25 -8 -54 -17 -65 -22 -11 -4 -27 -10 -35 -13 -8 -3 8
-3 35 0 28 3 54 10 60 15 5 5 32 10 60 10 27 1 39 4 25 6 -14 3 -27 8 -30 12
-3 4 -25 0 -50 -8z"/>
<path d="M12440 2149 c0 -5 5 -7 10 -4 6 3 10 8 10 11 0 2 -4 4 -10 4 -5 0
-10 -5 -10 -11z"/>
<path d="M12091 1790 c-16 -9 -6 -30 15 -30 15 0 20 25 6 34 -4 2 -14 1 -21
-4z"/>
<path d="M12090 1615 c-7 -9 -11 -18 -8 -20 7 -8 38 5 38 15 0 17 -18 19 -30
5z"/>
<path d="M6080 2320 c0 -5 5 -10 10 -10 6 0 10 5 10 10 0 6 -4 10 -10 10 -5 0
-10 -4 -10 -10z"/>
<path d="M11406 1725 c4 -8 8 -15 10 -15 2 0 4 7 4 15 0 8 -4 15 -10 15 -5 0
-7 -7 -4 -15z"/>
<path d="M11390 1691 c0 -5 5 -13 10 -16 6 -3 10 -2 10 4 0 5 -4 13 -10 16 -5
3 -10 2 -10 -4z"/>
<path d="M4051 9973 c6 -16 24 -41 41 -58 l31 -30 -8 35 c-14 66 -23 80 -50
80 -23 0 -24 -2 -14 -27z"/>
<path d="M4141 9973 c6 -16 23 -53 38 -83 15 -30 47 -104 71 -165 24 -60 50
-119 58 -130 13 -19 13 -18 7 12 -3 18 -14 49 -24 70 -10 21 -22 55 -25 77 -4
21 -11 46 -16 55 -41 78 -60 124 -60 143 0 20 5 18 41 -22 31 -34 42 -54 43
-82 1 -20 7 -42 13 -50 6 -7 21 -38 34 -68 13 -30 36 -68 51 -83 15 -16 27
-31 25 -35 -3 -12 35 -92 45 -92 12 0 10 28 -6 58 -7 15 -17 50 -21 79 -4 29
-15 69 -26 90 -10 20 -19 46 -19 57 0 20 0 20 14 1 7 -11 22 -47 32 -80 19
-63 31 -85 45 -85 11 0 12 54 2 64 -4 3 -8 26 -9 49 -2 35 -20 135 -39 225 -5
22 -8 22 -145 22 l-140 0 11 -27z"/>
<path d="M1246 9904 c-3 -9 -5 -32 -5 -52 l2 -37 6 35 c7 41 32 47 42 10 6
-23 7 -22 8 8 1 20 -3 31 -9 27 -6 -3 -13 1 -16 9 -8 20 -20 20 -28 0z"/>
<path d="M4116 9863 c-10 -10 -7 -28 7 -48 13 -16 14 -15 15 13 1 31 -9 47
-22 35z"/>
<path d="M1271 9844 c0 -11 3 -14 6 -6 3 7 2 16 -1 19 -3 4 -6 -2 -5 -13z"/>
<path d="M1290 9813 c0 -13 5 -23 10 -23 13 0 13 11 0 30 -8 12 -10 11 -10 -7z"/>
<path d="M1253 9783 c-7 -20 -8 -35 -2 -38 12 -8 21 17 17 47 -3 21 -4 20 -15
-9z"/>
<path d="M4140 9766 c0 -2 7 -9 15 -16 9 -7 15 -8 15 -2 0 5 -7 12 -15 16 -8
3 -15 4 -15 2z"/>
<path d="M1260 9721 c0 -6 5 -13 10 -16 6 -3 10 1 10 9 0 9 -4 16 -10 16 -5 0
-10 -4 -10 -9z"/>
<path d="M4481 9574 c0 -11 3 -14 6 -6 3 7 2 16 -1 19 -3 4 -6 -2 -5 -13z"/>
<path d="M4970 8402 c0 -17 10 -43 23 -59 13 -15 27 -37 30 -48 32 -106 76
-216 77 -191 0 36 -33 143 -66 212 -13 28 -24 58 -24 66 0 8 -9 23 -20 33 -20
18 -20 17 -20 -13z"/>
<path d="M2459 8295 c-43 -28 -57 -55 -29 -55 23 0 80 47 80 66 0 19 -9 17
-51 -11z"/>
<path d="M5121 8004 c0 -11 3 -14 6 -6 3 7 2 16 -1 19 -3 4 -6 -2 -5 -13z"/>
<path d="M1887 7774 c-4 -4 7 -23 24 -43 37 -45 39 -47 73 -96 21 -30 26 -34
21 -15 -4 14 -12 27 -16 28 -5 2 -9 7 -9 12 0 4 -14 33 -32 64 -30 52 -46 65
-61 50z"/>
<path d="M1920 7110 c0 -5 3 -10 8 -10 4 -1 28 -20 54 -43 46 -42 108 -83 108
-73 0 3 -21 26 -47 52 -50 47 -123 92 -123 74z"/>
<path d="M2337 6993 c3 -32 13 -74 22 -93 15 -33 19 -35 56 -32 22 2 42 6 45
8 11 11 -93 163 -117 171 -8 3 -10 -12 -6 -54z"/>
<path d="M5444 6523 c3 -21 7 -51 8 -68 2 -17 9 -30 16 -29 6 1 21 2 32 3 19
1 30 31 12 31 -5 0 -13 10 -19 23 -30 65 -37 77 -46 77 -5 0 -7 -16 -3 -37z"/>
<path d="M18216 5947 c3 -10 9 -15 12 -12 3 3 0 11 -7 18 -10 9 -11 8 -5 -6z"/>
<path d="M2330 5934 c0 -8 5 -12 10 -9 6 3 10 10 10 16 0 5 -4 9 -10 9 -5 0
-10 -7 -10 -16z"/>
<path d="M2290 5860 c0 -6 7 -10 15 -10 8 0 15 2 15 4 0 2 -7 6 -15 10 -8 3
-15 1 -15 -4z"/>
<path d="M0 5644 c0 -8 5 -12 10 -9 6 4 8 11 5 16 -9 14 -15 11 -15 -7z"/>
<path d="M5742 5458 c-7 -7 -12 -15 -12 -19 0 -5 -11 -20 -25 -35 -30 -32 -32
-44 -6 -44 10 0 21 -7 25 -15 3 -10 16 -14 38 -13 31 3 33 1 36 -30 4 -41 11
-39 84 20 69 55 95 88 102 124 4 16 3 22 0 14 -13 -27 -42 -52 -49 -41 -3 6
-1 11 6 11 7 0 9 3 6 6 -4 4 -25 -5 -48 -21 -35 -23 -45 -25 -66 -16 -13 6
-26 18 -29 26 -7 18 -41 20 -47 3 -2 -7 -8 -10 -12 -6 -4 4 -2 14 5 23 16 19
9 30 -8 13z"/>
<path d="M18182 5434 c-12 -8 -22 -26 -22 -38 0 -13 -9 -35 -20 -49 -11 -14
-20 -30 -20 -36 0 -8 91 -61 106 -61 2 0 4 45 4 100 0 107 -4 115 -48 84z"/>
<path d="M4160 5412 c0 -5 7 -13 16 -16 10 -4 14 -1 12 6 -5 15 -28 23 -28 10z"/>
<path d="M5991 5327 c-6 -8 -8 -16 -5 -19 3 -3 7 -26 10 -50 5 -58 37 -159 50
-158 11 1 6 151 -7 203 -10 38 -28 47 -48 24z"/>
<path d="M5710 5218 c-29 -32 -14 -37 18 -5 14 15 21 27 15 27 -7 0 -21 -10
-33 -22z"/>
<path d="M5901 5226 c-12 -14 -11 -20 6 -39 14 -15 19 -31 17 -52 -6 -42 31
-102 51 -85 8 7 15 23 15 37 0 31 -26 93 -39 93 -6 0 -17 14 -24 31 -11 29
-14 30 -26 15z"/>
<path d="M17940 5200 c0 -5 5 -10 10 -10 6 0 10 5 10 10 0 6 -4 10 -10 10 -5
0 -10 -4 -10 -10z"/>
<path d="M3690 4931 c0 -16 107 -83 126 -79 14 3 3 15 -45 46 -65 43 -81 49
-81 33z"/>
<path d="M4038 4883 c7 -3 16 -2 19 1 4 3 -2 6 -13 5 -11 0 -14 -3 -6 -6z"/>
<path d="M4142 4784 c-7 -8 -17 -24 -22 -36 l-9 -23 0 23 c-1 12 -3 22 -5 22
-3 0 -33 -13 -68 -30 -54 -25 -65 -35 -37 -32 4 1 5 -8 2 -18 -3 -11 -9 -20
-14 -20 -5 0 -6 -6 -3 -14 4 -10 -2 -16 -18 -18 -43 -6 -27 -33 22 -36 41 -2
50 1 97 43 51 45 78 95 71 134 -2 16 -5 17 -16 5z"/>
<path d="M18021 4757 c-13 -13 -14 -47 -1 -67 14 -22 55 20 46 48 -8 25 -30
34 -45 19z"/>
<path d="M4316 4692 c-3 -5 -8 -27 -12 -50 -5 -31 -1 -51 15 -85 27 -56 84
-123 130 -151 38 -24 128 -52 137 -44 3 3 -14 19 -37 36 -75 56 -177 198 -203
285 -6 18 -21 23 -30 9z"/>
<path d="M4220 4631 c0 -4 -18 -20 -40 -35 -22 -14 -40 -33 -40 -40 0 -8 15
-23 33 -35 18 -11 44 -32 57 -46 31 -33 159 -109 168 -100 4 4 -1 12 -11 19
-9 7 -17 20 -17 27 0 8 -18 38 -40 68 -22 29 -52 75 -67 102 -26 45 -43 61
-43 40z"/>
<path d="M170 4050 c0 -5 7 -10 15 -10 8 0 15 5 15 10 0 6 -7 10 -15 10 -8 0
-15 -4 -15 -10z"/>
<path d="M17877 3904 c-33 -22 -50 -54 -29 -54 11 0 77 69 71 75 -3 2 -22 -7
-42 -21z"/>
</g>
</svg>
